<svg xmlns="http://www.w3.org/2000/svg" xmlns:xlink="http://www.w3.org/1999/xlink" width="100%" viewBox="0 0 225 245" height="100%" preserveAspectRatio="xMidYMid meet" version="1.0"><defs><clipPath id="20302f2252a"><path d="M 0 10 L 224.761719 10 L 224.761719 215 L 0 215 Z M 0 10 " clip-rule="nonzero"/></clipPath></defs><g clip-path="url(#203022252a)"><path fill="#010101" d="M 197.644531 110.03125 L 197.644531 43.578125 C 197.644531 38.402344 195.625 33.535156 191.957031 29.871094 C 188.34375 26.261719 183.34375 24.195312 178.234375 24.195312 L 152.457031 24.195312 L 152.457031 14.078125 C 152.457031 11.9375 150.71875 10.203125 148.578125 10.203125 C 146.441406 10.203125 144.703125 11.9375 144.703125 14.078125 L 144.703125 24.195312 L 102.746094 24.195312 L 102.746094 14.078125 C 102.746094 11.9375 101.011719 10.203125 98.871094 10.203125 C 96.730469 10.203125 94.992188 11.9375 94.992188 14.078125 L 94.992188 24.195312 L 53.035156 24.195312 L 53.035156 14.078125 C 53.035156 11.9375 51.300781 10.203125 49.160156 10.203125 C 47.019531 10.203125 45.28125 11.9375 45.28125 14.078125 L 45.28125 24.195312 L 19.507812 24.195312 C 14.394531 24.195312 9.394531 26.265625 5.78125 29.871094 C 2.113281 33.535156 0.09375 38.402344 0.09375 43.578125 L 0.09375 159.90625 C 0.09375 165.082031 2.113281 169.949219 5.78125 173.613281 C 9.394531 177.222656 14.394531 179.289062 19.507812 179.289062 L 116.578125 179.289062 C 125 199.710938 145.117188 214.140625 168.566406 214.140625 C 199.566406 214.140625 224.785156 188.953125 224.785156 157.992188 C 224.785156 137.667969 213.882812 119.886719 197.644531 110.03125 Z M 168.566406 101.847656 C 162.125 101.847656 155.960938 102.988281 150.195312 104.988281 L 150.195312 81.054688 L 189.890625 81.054688 L 189.890625 106.066406 C 183.308594 103.359375 176.117188 101.847656 168.566406 101.847656 Z M 125.105469 122.425781 L 102.746094 122.425781 L 102.746094 81.054688 L 142.441406 81.054688 L 142.441406 108.316406 C 135.761719 111.835938 129.859375 116.636719 125.105469 122.425781 Z M 55.296875 122.425781 L 55.296875 81.054688 L 94.992188 81.054688 L 94.992188 122.425781 Z M 94.992188 130.171875 L 94.992188 171.546875 L 55.296875 171.546875 L 55.296875 130.171875 Z M 7.847656 81.054688 L 47.542969 81.054688 L 47.542969 122.425781 L 7.847656 122.425781 Z M 11.261719 35.347656 C 13.433594 33.179688 16.4375 31.9375 19.507812 31.9375 L 45.28125 31.9375 L 45.28125 41.460938 C 45.28125 43.597656 47.019531 45.332031 49.160156 45.332031 C 51.300781 45.332031 53.035156 43.597656 53.035156 41.460938 L 53.035156 31.9375 L 94.992188 31.9375 L 94.992188 41.460938 C 94.992188 43.597656 96.730469 45.332031 98.871094 45.332031 C 101.011719 45.332031 102.746094 43.597656 102.746094 41.460938 L 102.746094 31.9375 L 144.703125 31.9375 L 144.703125 41.460938 C 144.703125 43.597656 146.441406 45.332031 148.578125 45.332031 C 150.71875 45.332031 152.457031 43.597656 152.457031 41.460938 L 152.457031 31.9375 L 178.234375 31.9375 C 181.304688 31.9375 184.304688 33.183594 186.476562 35.347656 C 188.679688 37.546875 189.890625 40.46875 189.890625 43.578125 L 189.890625 73.308594 L 7.847656 73.308594 L 7.847656 43.578125 C 7.847656 40.46875 9.0625 37.546875 11.261719 35.347656 Z M 11.261719 168.132812 C 9.0625 165.933594 7.847656 163.011719 7.847656 159.902344 L 7.847656 130.167969 L 47.542969 130.167969 L 47.542969 171.542969 L 19.507812 171.542969 C 16.4375 171.542969 13.429688 170.304688 11.261719 168.132812 Z M 102.746094 171.542969 L 102.746094 130.171875 L 119.800781 130.171875 C 115.085938 138.382812 112.347656 147.867188 112.347656 157.992188 C 112.347656 162.675781 112.988281 167.199219 114.074219 171.546875 L 102.746094 171.546875 Z M 168.566406 206.390625 C 141.839844 206.390625 120.101562 184.679688 120.101562 157.988281 C 120.101562 131.296875 141.839844 109.585938 168.566406 109.585938 C 195.292969 109.585938 217.03125 131.296875 217.03125 157.988281 C 217.03125 184.679688 195.292969 206.390625 168.566406 206.390625 Z M 168.566406 206.390625 " fill-opacity="1" fill-rule="nonzero"/></g><path fill="#010101" d="M 186.640625 153.53125 L 172.445312 153.53125 L 172.445312 131.5 C 172.445312 129.359375 170.707031 127.628906 168.566406 127.628906 C 166.425781 127.628906 164.691406 129.359375 164.691406 131.5 L 164.691406 157.40625 C 164.691406 159.546875 166.425781 161.277344 168.566406 161.277344 L 186.640625 161.277344 C 188.777344 161.277344 190.515625 159.546875 190.515625 157.40625 C 190.515625 155.261719 188.777344 153.53125 186.640625 153.53125 Z M 186.640625 153.53125 " fill-opacity="1" fill-rule="nonzero"/></svg>