<svg xmlns="http://www.w3.org/2000/svg" xmlns:xlink="http://www.w3.org/1999/xlink" width="100%" viewBox="0 0 225 225" height="100%" preserveAspectRatio="xMidYMid meet" version="1.0"><defs><clipPath id="2853efe9a2d9"><path d="M 2 1 L 151.914062 1 L 151.914062 224.9375 L 2 224.9375 Z M 2 1 " clip-rule="nonzero"/></clipPath><clipPath id="f4a1d904b4d"><path d="M 29 39 L 224.761719 39 L 224.761719 224 L 29 224 Z M 29 39 " clip-rule="nonzero"/></clipPath><clipPath id="f955d543e58"><path d="M 37.40625 30.707031 L 228.890625 43.324219 L 216.421875 232.5625 L 24.941406 219.945312 Z M 37.40625 30.707031 " clip-rule="nonzero"/></clipPath><clipPath id="d8bf5fdbe4ea"><path d="M 37.40625 30.707031 L 228.890625 43.324219 L 216.421875 232.5625 L 24.941406 219.945312 Z M 37.40625 30.707031 " clip-rule="nonzero"/></clipPath><clipPath id="4bfd1ee337b4"><path d="M 37.40625 30.707031 L 228.890625 43.324219 L 216.421875 232.5625 L 24.941406 219.945312 Z M 37.40625 30.707031 " clip-rule="nonzero"/></clipPath></defs><g clip-path="url(#2853ee9a29)"><path fill="#000000" d="M 149.808594 41.503906 C 148.5625 40.042969 147.011719 39.480469 145.988281 39.261719 C 146.589844 36.0625 147.066406 30.890625 144.667969 28.105469 C 143.9375 27.261719 142.6875 26.339844 140.671875 26.234375 C 140.21875 24.0625 139.269531 19.703125 138.039062 15.320312 C 134.730469 3.546875 132.246094 1.578125 130.445312 1.175781 C 125.78125 0.140625 50.136719 9.8125 35.03125 11.757812 C 34.863281 11.78125 30.8125 12.296875 26.582031 14.652344 C 22.96875 16.664062 20.316406 19.402344 18.714844 22.730469 C 16.902344 22.304688 12.460938 21.671875 8.9375 24.480469 C 5.457031 27.25 4.007812 32.4375 4.621094 39.902344 C 4.230469 40.390625 3.703125 41.132812 3.261719 42.023438 C 2.5625 43.367188 1.996094 45.085938 2.234375 46.886719 C 2.414062 48.230469 3.136719 50.15625 5.578125 51.6875 C 6.15625 52.050781 6.957031 52.402344 7.953125 52.738281 L 27.765625 210.921875 C 27.765625 210.925781 27.765625 210.929688 27.765625 210.933594 C 27.78125 211.046875 27.808594 211.15625 27.84375 211.261719 C 27.84375 211.265625 27.84375 211.265625 27.84375 211.265625 C 27.882812 211.371094 27.929688 211.472656 27.984375 211.566406 C 27.992188 211.574219 27.992188 211.582031 28 211.589844 C 28.054688 211.679688 28.117188 211.761719 28.191406 211.839844 C 28.199219 211.851562 28.207031 211.859375 28.214844 211.867188 C 28.285156 211.945312 28.367188 212.011719 28.453125 212.074219 C 28.460938 212.078125 28.464844 212.085938 28.472656 212.089844 C 28.890625 212.382812 38.949219 219.257812 56.261719 222.8125 C 62.898438 224.175781 69.707031 224.863281 76.601562 224.863281 C 80.234375 224.863281 83.894531 224.671875 87.5625 224.289062 C 100.828125 222.914062 114.285156 219.027344 127.550781 212.742188 C 127.574219 212.730469 127.59375 212.714844 127.617188 212.703125 C 127.648438 212.6875 127.679688 212.671875 127.707031 212.652344 C 127.742188 212.632812 127.777344 212.609375 127.808594 212.585938 C 127.835938 212.566406 127.863281 212.546875 127.890625 212.523438 C 127.921875 212.496094 127.953125 212.46875 127.984375 212.441406 C 128.007812 212.417969 128.03125 212.398438 128.054688 212.371094 C 128.082031 212.339844 128.109375 212.308594 128.136719 212.277344 C 128.15625 212.25 128.175781 212.226562 128.195312 212.203125 C 128.222656 212.167969 128.242188 212.128906 128.265625 212.089844 C 128.28125 212.066406 128.296875 212.039062 128.3125 212.011719 C 128.335938 211.96875 128.351562 211.925781 128.371094 211.878906 C 128.382812 211.855469 128.394531 211.832031 128.402344 211.808594 C 128.429688 211.738281 128.449219 211.667969 128.46875 211.59375 C 128.472656 211.578125 128.472656 211.5625 128.476562 211.546875 C 128.484375 211.492188 128.496094 211.433594 128.5 211.378906 L 128.503906 211.359375 L 142.667969 55.867188 C 148.238281 54.3125 151.039062 52.15625 151.449219 49.246094 C 151.917969 45.9375 151.363281 43.332031 149.808594 41.503906 Z M 10.257812 30.742188 C 15.351562 32.929688 30.203125 36.816406 71.398438 36.816406 C 73.890625 36.816406 76.484375 36.800781 79.175781 36.769531 C 124.40625 36.273438 136.527344 33.273438 140.910156 30.828125 C 142.183594 33.21875 141.589844 38.527344 140.839844 41.675781 C 138.105469 43.035156 130.773438 45.054688 111.144531 46.140625 C 96.644531 46.941406 82.558594 46.828125 82.417969 46.824219 C 82.40625 46.824219 82.394531 46.824219 82.382812 46.824219 C 54.976562 47.160156 34.128906 46.042969 20.417969 43.492188 C 14.492188 42.394531 11.199219 41.238281 9.441406 40.429688 C 9.28125 39.625 8.386719 34.566406 10.257812 30.742188 Z M 137.320312 27.050781 C 130 29.671875 100.617188 30.996094 81.496094 31.253906 C 47.820312 32.304688 30.296875 30.820312 21.210938 29.113281 C 21.609375 26.125 23.980469 17.285156 38.003906 15.539062 C 39.789062 15.320312 42.070312 15.03125 44.738281 14.695312 C 64.472656 12.21875 124.257812 4.710938 129.277344 5.605469 C 130.746094 6.53125 134.199219 10.457031 137.320312 27.050781 Z M 80.832031 59.015625 C 87.210938 59.136719 93.027344 59.199219 98.34375 59.199219 C 111.039062 59.199219 120.863281 58.847656 128.597656 58.140625 C 131.980469 57.828125 134.953125 57.449219 137.546875 56.996094 L 125.25 210.058594 C 95.519531 221.847656 71.417969 221.082031 56.375 218.339844 C 42.363281 215.78125 33.414062 211.082031 30.992188 209.695312 L 13.023438 54.042969 C 26.761719 56.832031 54.839844 58.523438 80.832031 59.015625 Z M 145.660156 50.195312 C 144.738281 50.855469 143.597656 51.28125 142.359375 51.425781 C 78.4375 58.933594 16.738281 49.714844 9.636719 48.066406 C 7.480469 47.566406 6.132812 46.757812 5.84375 45.792969 C 5.652344 45.167969 5.839844 44.417969 6.160156 43.71875 C 10.050781 45.484375 27.289062 51.992188 70.128906 51.992188 C 73.96875 51.992188 78.019531 51.941406 82.277344 51.828125 C 139.027344 50.328125 142.414062 47.070312 146.339844 43.300781 C 146.355469 43.285156 146.375 43.265625 146.394531 43.25 C 146.816406 43.722656 147.175781 44.535156 147.421875 45.621094 C 147.859375 47.535156 147.28125 49.03125 145.660156 50.195312 Z M 17.457031 26.28125 C 17.308594 26.902344 17.191406 27.539062 17.105469 28.191406 C 15.765625 27.828125 14.742188 27.472656 13.960938 27.144531 C 14.96875 26.695312 16.132812 26.402344 17.457031 26.28125 Z M 17.457031 26.28125 " fill-opacity="1" fill-rule="nonzero"/></g><g clip-path="url(#f4a1904b4d)"><g clip-path="url(#f955543e58)"><g clip-path="url(#d8bf5be4ea)"><g clip-path="url(#4b1ee337b4)"><path fill="#020202" d="M 77.375 223.242188 C 76.378906 223.21875 75.304688 223.1875 74.371094 222.847656 L 74.214844 222.796875 C 70.160156 221.414062 67.578125 217.652344 64.871094 214.601562 C 59.710938 208.835938 57.5 209.089844 51.183594 206.960938 C 45.414062 204.984375 41.234375 200.679688 40.285156 194.515625 C 39.5625 189.800781 40.449219 187.226562 37.539062 182.367188 C 35.351562 178.671875 30.289062 175.070312 29.742188 170.644531 C 28.71875 162.558594 36.988281 159.875 43.265625 157.773438 C 51.824219 154.90625 60.910156 153.113281 69.871094 152.027344 C 68.769531 138.472656 73.855469 127.839844 82.078125 117.371094 L 88.691406 109.550781 C 95.683594 102.035156 103.820312 95.269531 112.257812 89.40625 C 124.871094 80.703125 140.511719 73.195312 156.054688 78.011719 C 157.242188 69.074219 162.203125 55.519531 166.519531 48.027344 C 169 43.683594 171.636719 39.945312 177.132812 39.988281 C 183.390625 40.601562 186.054688 44.925781 190.121094 49.183594 C 194.070312 53.351562 196.539062 53.992188 201.859375 55.539062 C 208.703125 57.507812 213.320312 61.839844 213.988281 69.261719 C 214.371094 73.714844 214.296875 77.300781 216.65625 81.363281 C 218.484375 84.476562 224.167969 89.597656 224.503906 92.929688 C 225.191406 99.4375 219.5 101.734375 214.386719 103.710938 C 203.796875 107.800781 195.042969 109.378906 183.976562 110.402344 C 185.917969 127.484375 178.832031 139.460938 167.460938 151.71875 C 160.429688 159.269531 152.648438 166.058594 144.316406 172.128906 C 130.164062 182.445312 116.140625 190.179688 98.023438 185.113281 C 96.324219 195.175781 90.503906 213.9375 83.882812 220.640625 C 82.003906 222.550781 80.003906 223.257812 77.375 223.242188 Z M 176.179688 46.03125 C 173.4375 46.527344 171.585938 51.03125 170.441406 53.230469 C 166.101562 61.640625 163.257812 70.945312 161.488281 80.242188 L 161.636719 80.414062 C 163.074219 80.984375 164.601562 82.003906 165.769531 83.039062 L 169.222656 74.769531 C 169.75 73.449219 170.203125 72.003906 170.957031 70.816406 C 172.734375 68.058594 177.171875 69.667969 175.96875 74.015625 C 175.542969 75.625 174.601562 77.238281 173.941406 78.789062 L 171.261719 85.59375 C 170.875 86.605469 170.640625 86.550781 171.308594 87.273438 L 172.71875 88.839844 C 174.796875 86.386719 177.25 84.234375 179.550781 81.992188 C 181.128906 80.421875 182.6875 78.527344 184.453125 77.128906 C 187.433594 74.851562 191.398438 78.183594 188.214844 81.765625 L 177.25 92.691406 C 177.484375 93.34375 177.808594 93.882812 178.128906 94.460938 L 190.894531 90.078125 C 192.445312 89.542969 194.742188 88.535156 196.285156 89.316406 C 198.789062 90.636719 198 93.539062 195.738281 94.585938 C 194.300781 95.25 192.640625 95.617188 191.132812 96.117188 L 183.753906 98.621094 C 182.695312 98.992188 181.554688 99.316406 180.53125 99.765625 L 182.40625 104.597656 L 189.09375 104.078125 C 193.917969 103.480469 215.777344 98.976562 218.5 94.570312 C 217.960938 91.863281 215.652344 89.953125 213.996094 87.890625 C 211.164062 84.273438 209.15625 80.273438 208.542969 75.683594 C 207.894531 71.015625 208.949219 65.898438 204.246094 62.835938 C 202.257812 61.550781 199.8125 61.1875 197.542969 60.519531 C 191.484375 58.726562 187.433594 54.867188 183.148438 50.359375 C 181.140625 48.152344 179.570312 45.972656 176.179688 46.03125 Z M 146.527344 82.289062 C 145.328125 82.328125 142.179688 82.320312 141.039062 82.683594 L 135.273438 171.453125 C 135.535156 171.113281 137.238281 170.066406 137.695312 169.738281 L 141.5 167.039062 L 149.371094 160.695312 C 150.046875 160.144531 151.800781 158.941406 152.1875 158.488281 L 157.085938 84.140625 C 155.042969 83.089844 148.761719 82.277344 146.527344 82.289062 Z M 134.917969 84.277344 C 130.929688 85.53125 127.203125 87 123.769531 88.925781 L 119.121094 91.730469 C 118.953125 91.839844 118.871094 91.914062 118.777344 92.109375 L 112.914062 180.472656 C 112.957031 180.476562 113.03125 180.519531 113.070312 180.523438 C 117.917969 180.164062 123.347656 178.207031 127.554688 176.089844 C 128.046875 175.84375 128.65625 175.6875 129.039062 175.3125 Z M 162.644531 87.539062 L 158.488281 152.402344 C 158.714844 151.976562 159.082031 151.882812 159.378906 151.582031 L 167.109375 143.15625 C 173.164062 135.976562 178.003906 127.242188 178.433594 117.699219 C 178.910156 107.4375 174.292969 97.042969 166.394531 90.457031 Z M 112.683594 96.253906 L 98.054688 108.414062 C 97.628906 108.824219 95.691406 110.371094 95.582031 110.804688 L 91.386719 175.742188 C 91.722656 176.085938 92.074219 176.1875 92.457031 176.410156 L 94.070312 177.316406 C 98.113281 179.496094 102.554688 180.46875 107.113281 180.808594 Z M 89.363281 117.492188 C 85.535156 121.75 80.628906 129.082031 78.503906 134.128906 C 74.160156 144.375 74.535156 155.644531 80.566406 165.097656 L 81.4375 166.433594 C 82.421875 167.8125 83.984375 170.109375 85.394531 171.082031 C 85.546875 171.210938 85.617188 171.335938 85.726562 171.5 Z M 70.609375 157.742188 L 62.066406 159.132812 C 54.839844 160.570312 45.207031 162.769531 38.53125 166.078125 C 34.207031 168.226562 35.230469 170.207031 38.082031 173.546875 L 40.707031 176.632812 C 43.210938 179.75 44.90625 183.691406 45.566406 187.601562 C 46.601562 193.613281 45.207031 198.46875 52.261719 200.886719 L 56.480469 202.203125 C 61.160156 203.746094 64.859375 206.304688 68.253906 209.839844 L 71.558594 213.488281 C 78.6875 221.457031 81.089844 215.871094 84.667969 208.128906 C 88.058594 200.8125 90.332031 192.945312 92.082031 185.121094 L 92.566406 183.199219 C 90.71875 182.199219 88.910156 181.242188 87.199219 179.976562 L 83.679688 190.433594 C 83.191406 191.835938 82.726562 193.441406 81.964844 194.707031 C 80.386719 197.476562 76.199219 195.683594 76.726562 192.566406 C 76.980469 191.109375 77.679688 189.597656 78.167969 188.195312 C 79.253906 185.035156 80.261719 181.832031 81.617188 178.808594 L 82.625 176.800781 L 80.972656 175.257812 L 71.820312 184.148438 C 70.234375 185.796875 67.894531 188.078125 65.726562 185.859375 C 63.113281 183.214844 66.878906 180.511719 68.621094 178.871094 L 76.769531 171.351562 C 77.488281 170.679688 76.363281 169.648438 75.703125 168.726562 L 65.074219 172.175781 C 63.40625 172.703125 61.601562 173.5 59.871094 173.746094 C 56.648438 174.253906 54.839844 170.222656 57.859375 168.546875 C 59.308594 167.726562 61.015625 167.242188 62.5625 166.742188 L 71.644531 163.832031 C 71.929688 163.730469 72.859375 163.511719 73.035156 163.285156 L 71.269531 158.621094 C 71.167969 158.335938 71.113281 157.972656 70.929688 157.722656 Z M 70.609375 157.742188 " fill-opacity="1" fill-rule="nonzero"/></g></g></g></g></svg>