<svg xmlns="http://www.w3.org/2000/svg" xmlns:xlink="http://www.w3.org/1999/xlink" width="100%" viewBox="0 0 225 225" height="100%" preserveAspectRatio="xMidYMid meet" version="1.0"><defs><clipPath id="18deaf89352"><path d="M 26 121 L 68 121 L 68 161.644531 L 26 161.644531 Z M 26 121 " clip-rule="nonzero"/></clipPath><clipPath id="5b5fa34efa3"><path d="M 159 121 L 200 121 L 200 161.644531 L 159 161.644531 Z M 159 121 " clip-rule="nonzero"/></clipPath><clipPath id="20c427ac454"><path d="M 2 63.449219 L 223 63.449219 L 223 142 L 2 142 Z M 2 63.449219 " clip-rule="nonzero"/></clipPath><clipPath id="51a9af116f8"><path d="M 55.78125 59.375 L 164.476562 59.375 L 164.476562 161.320312 L 55.78125 161.320312 Z M 55.78125 59.375 " clip-rule="nonzero"/></clipPath></defs><g clip-path="url(#18def89352)"><path fill="#000000" d="M 46.835938 121.039062 C 35.664062 121.039062 26.566406 130.136719 26.566406 141.328125 C 26.566406 152.515625 35.664062 161.617188 46.835938 161.617188 C 58.015625 161.617188 67.105469 152.515625 67.105469 141.328125 C 67.105469 130.140625 58.011719 121.039062 46.835938 121.039062 Z M 46.835938 157.558594 C 37.898438 157.558594 30.621094 150.277344 30.621094 141.328125 C 30.621094 132.378906 37.898438 125.097656 46.835938 125.097656 C 55.78125 125.097656 63.050781 132.378906 63.050781 141.328125 C 63.050781 150.277344 55.78125 157.558594 46.835938 157.558594 Z M 46.835938 157.558594 " fill-opacity="1" fill-rule="nonzero"/></g><path fill="#000000" d="M 46.835938 129.980469 C 40.589844 129.980469 35.496094 135.070312 35.496094 141.332031 C 35.496094 147.589844 40.589844 152.683594 46.835938 152.683594 C 53.089844 152.683594 58.183594 147.589844 58.183594 141.332031 C 58.179688 135.066406 53.085938 129.980469 46.835938 129.980469 Z M 46.835938 148.621094 C 42.824219 148.621094 39.550781 145.34375 39.550781 141.328125 C 39.550781 137.308594 42.824219 134.03125 46.835938 134.03125 C 50.859375 134.03125 54.128906 137.308594 54.128906 141.328125 C 54.125 145.351562 50.859375 148.621094 46.835938 148.621094 Z M 46.835938 148.621094 " fill-opacity="1" fill-rule="nonzero"/><path fill="#000000" d="M 179.480469 129.980469 C 173.222656 129.980469 168.132812 135.070312 168.132812 141.332031 C 168.132812 147.589844 173.222656 152.683594 179.480469 152.683594 C 185.726562 152.683594 190.816406 147.589844 190.816406 141.332031 C 190.816406 135.066406 185.726562 129.980469 179.480469 129.980469 Z M 179.480469 148.621094 C 175.457031 148.621094 172.1875 145.34375 172.1875 141.328125 C 172.1875 137.308594 175.457031 134.03125 179.480469 134.03125 C 183.492188 134.03125 186.765625 137.308594 186.765625 141.328125 C 186.765625 145.351562 183.492188 148.621094 179.480469 148.621094 Z M 179.480469 148.621094 " fill-opacity="1" fill-rule="nonzero"/><g clip-path="url(#5b5f34efa3)"><path fill="#000000" d="M 179.480469 121.039062 C 168.296875 121.039062 159.210938 130.136719 159.210938 141.328125 C 159.210938 152.515625 168.296875 161.617188 179.480469 161.617188 C 190.652344 161.617188 199.75 152.515625 199.75 141.328125 C 199.75 130.140625 190.652344 121.039062 179.480469 121.039062 Z M 179.480469 157.558594 C 170.53125 157.558594 163.261719 150.277344 163.261719 141.328125 C 163.261719 132.378906 170.53125 125.097656 179.480469 125.097656 C 188.417969 125.097656 195.695312 132.378906 195.695312 141.328125 C 195.695312 150.277344 188.417969 157.558594 179.480469 157.558594 Z M 179.480469 157.558594 " fill-opacity="1" fill-rule="nonzero"/></g><path fill="#000000" d="M 121.15625 100.363281 L 109.335938 100.363281 C 108.210938 100.363281 107.308594 101.273438 107.308594 102.390625 C 107.308594 103.511719 108.210938 104.417969 109.335938 104.417969 L 121.15625 104.417969 C 122.269531 104.417969 123.183594 103.511719 123.183594 102.390625 C 123.183594 101.269531 122.273438 100.363281 121.15625 100.363281 Z M 121.15625 100.363281 " fill-opacity="1" fill-rule="nonzero"/><path fill="#000000" d="M 166.128906 100.363281 L 154.308594 100.363281 C 153.195312 100.363281 152.28125 101.273438 152.28125 102.390625 C 152.28125 103.511719 153.195312 104.417969 154.308594 104.417969 L 166.128906 104.417969 C 167.253906 104.417969 168.15625 103.511719 168.15625 102.390625 C 168.15625 101.269531 167.257812 100.363281 166.128906 100.363281 Z M 166.128906 100.363281 " fill-opacity="1" fill-rule="nonzero"/><g clip-path="url(#20c427c454)"><path fill="#000000" d="M 220.429688 92.195312 C 218.945312 85.5 207.035156 70.136719 200.519531 66.515625 C 195.71875 63.851562 169.726562 63.449219 154.65625 63.449219 C 132.078125 63.449219 104.132812 64.425781 94.429688 66.296875 C 88.804688 67.378906 82.234375 73.863281 75.886719 80.140625 C 71.632812 84.332031 67.246094 88.667969 63.789062 90.65625 C 60.113281 91.011719 33.28125 93.613281 21.773438 94.738281 C 14.265625 95.476562 4.902344 100.242188 2.929688 118.796875 C 1.074219 136.226562 6.609375 139.148438 18.777344 141.300781 C 18.898438 141.320312 19.019531 141.332031 19.136719 141.332031 L 20.972656 141.332031 C 21.90625 141.332031 22.714844 140.699219 22.933594 139.792969 C 24.027344 135.441406 27.921875 123.59375 32.855469 121.066406 C 37.027344 118.933594 41.59375 117.894531 46.828125 117.894531 C 52.070312 117.894531 56.636719 118.933594 60.808594 121.066406 C 65.726562 123.582031 69.640625 135.441406 70.722656 139.792969 C 70.953125 140.699219 71.757812 141.332031 72.691406 141.332031 L 153.601562 141.332031 C 154.535156 141.332031 155.347656 140.699219 155.574219 139.792969 C 156.660156 135.441406 160.558594 123.59375 165.484375 121.066406 C 169.65625 118.933594 174.234375 117.894531 179.46875 117.894531 C 184.699219 117.894531 189.269531 118.933594 193.441406 121.066406 C 198.367188 123.582031 202.1875 135.144531 203.25 139.390625 C 203.394531 139.96875 203.789062 140.453125 204.320312 140.714844 C 204.859375 140.976562 205.476562 140.996094 206.023438 140.757812 C 209.015625 139.460938 216.347656 136 219.964844 131.84375 C 224.113281 127.09375 221.503906 97.035156 220.429688 92.195312 Z M 217.011719 96.308594 C 217.359375 98.957031 217.660156 102.367188 217.863281 106 C 213.738281 103.835938 211.824219 101.273438 210.976562 99.335938 C 210.398438 98.03125 210.273438 96.972656 210.28125 96.308594 Z M 176.34375 90.605469 L 162.289062 67.546875 C 163.527344 67.558594 164.730469 67.574219 165.902344 67.59375 L 182.355469 90.609375 L 176.34375 90.609375 Z M 187.34375 90.605469 L 170.953125 67.6875 C 177.625 67.847656 183.089844 68.101562 187.359375 68.414062 L 204.066406 86.429688 C 202.519531 88.480469 199.65625 90.605469 193.457031 90.605469 Z M 157.523438 67.519531 L 171.601562 90.605469 L 127.964844 90.605469 L 131.964844 67.800781 C 139.164062 67.609375 146.847656 67.503906 154.65625 67.503906 C 155.636719 67.503906 156.574219 67.515625 157.523438 67.519531 Z M 78.726562 83.03125 C 84.382812 77.453125 90.78125 71.128906 95.191406 70.277344 C 100.558594 69.246094 112.832031 68.394531 127.835938 67.917969 L 123.855469 90.605469 L 70.6875 90.605469 C 73.246094 88.429688 75.9375 85.78125 78.726562 83.03125 Z M 10.3125 106.957031 C 12.046875 106.496094 15.632812 105.828125 19.707031 106.738281 C 18.527344 108.378906 13.410156 111.652344 8.25 112.238281 C 8.796875 110.261719 9.488281 108.5 10.3125 106.957031 Z M 216.925781 129.175781 C 214.476562 131.980469 209.617188 134.59375 206.550781 136.058594 C 205.09375 131.160156 201.308594 120.523438 195.300781 117.449219 C 190.550781 115.015625 185.375 113.828125 179.484375 113.828125 C 173.59375 113.828125 168.414062 115.015625 163.65625 117.449219 C 157.285156 120.714844 153.339844 132.773438 152.066406 137.269531 L 74.253906 137.269531 C 72.980469 132.777344 69.035156 120.714844 62.664062 117.449219 C 57.902344 115.015625 52.734375 113.828125 46.835938 113.828125 C 40.945312 113.828125 35.769531 115.015625 31.019531 117.449219 C 24.636719 120.714844 20.699219 132.773438 19.429688 137.269531 L 19.308594 137.269531 C 8.917969 135.425781 5.398438 133.960938 6.957031 119.226562 C 7.066406 118.230469 7.207031 117.28125 7.355469 116.359375 C 14.53125 116.035156 23.304688 111.234375 23.960938 106.890625 C 24.199219 105.320312 23.4375 103.417969 20.59375 102.78125 C 18.121094 102.226562 15.820312 102.152344 13.859375 102.285156 C 16.117188 100.273438 18.882812 99.097656 22.171875 98.773438 C 34.128906 97.605469 62.625 94.847656 64.5 94.664062 L 193.457031 94.664062 C 200.542969 94.664062 205.570312 92.15625 208.390625 87.214844 C 208.828125 86.449219 208.71875 85.480469 208.113281 84.832031 L 193.417969 68.988281 C 196.15625 69.328125 197.882812 69.695312 198.546875 70.066406 C 203.765625 72.96875 214.214844 86.210938 216.226562 92.253906 L 208.992188 92.253906 C 208.484375 92.253906 206.796875 92.457031 206.339844 95.046875 C 205.714844 98.535156 207.472656 106.066406 218.074219 110.597656 C 218.363281 119.171875 218.117188 127.660156 216.925781 129.175781 Z M 216.925781 129.175781 " fill-opacity="1" fill-rule="nonzero"/></g><g clip-path="url(#51a9f116f8)"><path fill="#000000" d="M 55.875 93.09375 C 55.875 89.828125 58.75 88.78125 62.542969 88.78125 C 66.855469 88.78125 72.476562 92.441406 72.476562 95.316406 C 72.476562 97.148438 69.996094 98.585938 65.15625 98.585938 C 59.273438 98.585938 55.875 96.230469 55.875 93.09375 Z M 65.679688 123.808594 C 65.679688 115.835938 88.949219 123.679688 88.949219 110.609375 C 88.949219 105.121094 79.144531 103.421875 79.144531 99.5 C 79.144531 94.535156 97.710938 100.023438 97.710938 91.265625 C 97.710938 85.777344 88.6875 84.863281 88.6875 77.542969 C 88.6875 75.710938 89.734375 74.011719 91.695312 74.011719 C 100.453125 74.011719 95.617188 91.398438 108.820312 91.398438 C 113.789062 91.398438 116.402344 87.738281 116.402344 82.117188 C 116.402344 75.449219 113.789062 73.230469 113.789062 65.648438 C 113.789062 62.644531 115.621094 59.375 119.410156 59.375 C 122.941406 59.375 125.292969 62.644531 125.292969 66.039062 C 125.292969 74.796875 121.371094 75.058594 121.371094 82.902344 C 121.371094 94.664062 126.601562 97.539062 136.273438 97.539062 C 141.765625 97.539062 144.511719 87.082031 150.261719 87.082031 C 154.839844 87.082031 156.667969 89.957031 156.667969 92.964844 C 156.667969 100.152344 137.191406 95.1875 137.191406 111.65625 C 137.191406 131.261719 164.382812 119.890625 164.382812 132.4375 C 164.382812 135.179688 162.945312 137.535156 159.808594 137.535156 C 150.261719 137.535156 151.441406 127.46875 131.699219 127.46875 C 124.507812 127.46875 123.203125 133.875 123.203125 139.234375 C 123.203125 146.421875 128.167969 147.597656 128.167969 151.519531 C 128.167969 154.785156 125.554688 156.355469 122.546875 156.355469 C 114.050781 156.355469 123.332031 131.128906 106.597656 131.128906 C 89.472656 131.128906 96.140625 161.320312 80.582031 161.320312 C 77.316406 161.320312 75.09375 159.359375 75.09375 155.832031 C 75.09375 142.5 93.65625 142.890625 93.65625 129.039062 C 93.65625 123.941406 89.605469 122.371094 86.207031 122.371094 C 79.539062 122.371094 74.699219 126.816406 70.386719 126.816406 C 67.640625 126.816406 65.679688 125.902344 65.679688 123.808594 Z M 136.929688 155.4375 C 136.929688 152.171875 139.542969 149.558594 142.8125 149.558594 C 146.078125 149.558594 148.695312 152.171875 148.695312 155.4375 C 148.695312 158.707031 146.078125 161.320312 142.8125 161.320312 C 139.542969 161.320312 136.929688 158.707031 136.929688 155.4375 Z M 136.929688 155.4375 " fill-opacity="1" fill-rule="nonzero"/></g></svg>