<?xml version="1.0" encoding="UTF-8"?>
<svg id="Layer_2" data-name="Layer 2" xmlns="http://www.w3.org/2000/svg" viewBox="0 0 1345.01 1345.01" width="2rem">
  <defs>
    <style>
      .cls-1 {
        fill: none;
        stroke: lime;
        stroke-miterlimit: 10;
        stroke-width: 12px;
      }
    </style>
  </defs>
  <g id="Layer_1-2" data-name="Layer 1">
    <path class="cls-1" d="M1339.01,672.5c0,342.2-257.87,624.1-589.85,662.13-25.14,2.87-50.76,4.38-76.66,4.38-41.31,0-81.73-3.77-120.91-10.96C241.18,1271.18,6,999.28,6,672.5,6,304.41,304.41,6,672.5,6s666.51,298.41,666.51,666.5"/>
    <path class="cls-1" d="M895.83,812.98c0,.07-145.11,0-145.91.03-2,172.72,5.4,352.46-1.15,521.67-64.71,7.46-132.87,5.25-196.8-6.56-.55-.14-.35-.77-.39-1.27,0-.33,0-.67,0-1,0-10,0-20,0-30-.36-160.66.82-322.83-.28-482.77-8.87-.16-101.66.12-129.97,0-.01-1.42,0-3.87,0-8.55,1.02-38.39-2.05-192.68,1.22-189.02,28.11-.02,74.96.01,105.09,0,13.52,0,22.82,0,23.03,0,.02-5.88-.06-11.92-.12-17.77-.38-20.54-.32-40.73.85-61.02-2.71-115.99,57.06-211.07,183.61-216.69,57.19-2.72,115.25-2.01,172.41.18,1.08.6,2.67.95,3.8,1.63.15.68.04,1.56.07,2.31,0,48.4,0,96.75-.07,145.18-.04,6.4-.55,12.06-.94,18.84-.13.85-1.24.34-1.86.47-3.59,0-7.19,0-10.78,0-28.38,0-56.81,0-85.09.07-9.03,0-17.33.53-25.47,2.5-24.09,6.29-29.63,22.64-30.01,52.84-.07,22.77,0,45.62,0,70.4,0,.21.01.07.04.11.63,0,1.05,0,1.94,0,39.46.67,153.39-1.37,154.83.81-6.07,66.05-12,131.37-18.08,197.55"/>
  </g>
</svg>