<svg xmlns="http://www.w3.org/2000/svg" xmlns:xlink="http://www.w3.org/1999/xlink" width="2rem" zoomAndPan="magnify" viewBox="0 0 810 809.999993" height="2rem" preserveAspectRatio="xMidYMid meet" version="1.0"><defs><clipPath id="b3b7f894bf9"><path d="M 234.011719 72 L 576 72 L 576 794 L 234.011719 794 Z M 234.011719 72 " clip-rule="nonzero"/></clipPath></defs><path fill="#00ff00" d="M 405 810 C 181.25 810 0 627.5 0 405 C 0 182.5 181.25 0 405 0 C 628.75 0 810 181.25 810 405 C 810 628.75 627.5 810 405 810 Z M 405 25 C 195 25 25 195 25 405 C 25 615 195 785 405 785 C 615 785 785 615 785 405 C 785 195 613.75 25 405 25 Z M 405 25 " fill-opacity="1" fill-rule="nonzero"/><g clip-path="url(#b3b7f89bf9)"><path fill="#00ff00" d="M 497.085938 191.292969 L 575.976562 191.292969 L 575.976562 72.347656 L 475.238281 72.347656 L 475.238281 72.800781 C 342.792969 77.65625 315.484375 151.847656 313.207031 230.28125 L 312.90625 230.28125 L 312.90625 312.816406 L 234.011719 312.816406 L 234.011719 431.910156 L 312.90625 431.910156 L 312.90625 793.902344 L 454.453125 793.902344 L 454.453125 431.910156 L 555.953125 431.910156 L 575.976562 312.816406 L 454.453125 312.816406 L 454.453125 238.929688 C 454.453125 212.683594 472.054688 191.292969 497.085938 191.292969 Z M 497.085938 191.292969 " fill-opacity="1" fill-rule="nonzero"/></g></svg>