<svg xmlns="http://www.w3.org/2000/svg" xmlns:xlink="http://www.w3.org/1999/xlink" width="100%" viewBox="0 0 225 225" height="100%" preserveAspectRatio="xMidYMid meet" version="1.0"><defs><clipPath id="920es9cf595"><path d="M 131.011719 33.371094 L 224.761719 33.371094 L 224.761719 191.535156 L 131.011719 191.535156 Z M 131.011719 33.371094 " clip-rule="nonzero"/></clipPath><clipPath id="b4s3a4bae5e"><path d="M 0.105469 33.371094 L 93.867188 33.371094 L 93.867188 191.535156 L 0.105469 191.535156 Z M 0.105469 33.371094 " clip-rule="nonzero"/></clipPath></defs><g clip-path="url(#920e9cf595)"><path fill="#1a1a1a" d="M 216.863281 33.484375 L 216.703125 33.460938 C 211.714844 32.765625 207.105469 36.121094 206.21875 41.097656 C 204.636719 49.984375 201.777344 65.675781 200.695312 71.621094 C 197.75 71.246094 194.6875 72.191406 192.382812 74.433594 L 171.59375 94.671875 C 171.261719 94.992188 170.890625 95.265625 170.484375 95.476562 L 155.378906 103.339844 C 152.492188 104.839844 150.003906 107.0625 148.179688 109.769531 L 134.644531 129.84375 C 132.730469 132.679688 131.667969 135.996094 131.570312 139.429688 L 131.246094 151.054688 C 131.246094 151.078125 131.246094 151.101562 131.246094 151.125 L 131.246094 189.039062 C 131.246094 190.425781 132.367188 191.546875 133.75 191.546875 C 135.132812 191.546875 136.257812 190.425781 136.257812 189.039062 L 136.257812 151.160156 L 136.582031 139.570312 C 136.652344 137.085938 137.417969 134.691406 138.800781 132.640625 L 152.335938 112.570312 C 153.695312 110.550781 155.546875 108.898438 157.691406 107.78125 L 172.796875 99.917969 C 173.636719 99.480469 174.410156 98.921875 175.089844 98.257812 L 195.878906 78.019531 C 197.804688 76.148438 200.78125 76.066406 202.804688 77.832031 C 204.917969 79.683594 205.191406 82.964844 203.414062 85.140625 L 175.46875 119.050781 C 175.421875 119.109375 175.378906 119.171875 175.335938 119.234375 L 166.234375 132.5625 C 165.457031 133.707031 165.75 135.265625 166.894531 136.042969 C 168.035156 136.824219 169.597656 136.527344 170.375 135.386719 L 179.410156 122.148438 L 207.285156 88.316406 C 210.820312 83.992188 210.300781 77.734375 206.101562 74.0625 C 205.886719 73.875 205.667969 73.699219 205.441406 73.535156 C 206.339844 68.605469 209.46875 51.4375 211.152344 41.976562 C 211.566406 39.660156 213.699219 38.101562 216.011719 38.421875 L 216.171875 38.445312 C 218.28125 38.738281 219.828125 40.59375 219.761719 42.761719 L 218.484375 85.777344 C 218.460938 86.570312 218.277344 87.335938 217.941406 88.050781 L 197.84375 130.933594 C 197.570312 131.515625 197.199219 132.046875 196.730469 132.519531 L 169.898438 160.09375 C 166.339844 163.75 164.625 168.765625 165.195312 173.855469 L 166.921875 189.320312 C 167.066406 190.597656 168.152344 191.546875 169.410156 191.546875 C 169.503906 191.546875 169.597656 191.539062 169.691406 191.527344 C 171.066406 191.375 172.054688 190.136719 171.902344 188.761719 L 170.175781 173.300781 C 169.773438 169.703125 170.980469 166.160156 173.488281 163.585938 L 200.308594 136.027344 C 201.167969 135.160156 201.863281 134.160156 202.382812 133.054688 L 222.480469 90.175781 C 223.109375 88.835938 223.449219 87.40625 223.492188 85.925781 L 224.773438 42.914062 C 224.914062 38.183594 221.511719 34.132812 216.863281 33.484375 " fill-opacity="1" fill-rule="nonzero"/></g><g clip-path="url(#b43a4bae5e)"><path fill="#1a1a1a" d="M 93.308594 139.429688 C 93.210938 135.996094 92.148438 132.683594 90.234375 129.84375 L 76.699219 109.769531 C 74.875 107.0625 72.386719 104.839844 69.503906 103.339844 L 54.398438 95.476562 C 53.988281 95.265625 53.617188 94.992188 53.285156 94.671875 L 32.496094 74.433594 C 30.195312 72.191406 27.132812 71.246094 24.183594 71.621094 C 23.101562 65.675781 20.242188 49.984375 18.660156 41.097656 C 17.773438 36.121094 13.171875 32.765625 8.179688 33.460938 L 8.015625 33.484375 C 3.367188 34.132812 -0.03125 38.183594 0.109375 42.914062 L 1.386719 85.925781 C 1.429688 87.40625 1.769531 88.835938 2.398438 90.175781 L 22.5 133.054688 C 23.015625 134.160156 23.714844 135.160156 24.554688 136.011719 L 51.390625 163.585938 C 53.898438 166.160156 55.105469 169.703125 54.703125 173.300781 L 52.976562 188.761719 C 52.824219 190.136719 53.8125 191.375 55.191406 191.527344 C 55.28125 191.539062 55.378906 191.546875 55.46875 191.546875 C 56.730469 191.546875 57.8125 190.597656 57.957031 189.320312 L 59.683594 173.855469 C 60.253906 168.765625 58.539062 163.75 54.980469 160.09375 L 28.132812 132.507812 C 27.679688 132.046875 27.3125 131.519531 27.035156 130.933594 L 6.9375 88.050781 C 6.601562 87.335938 6.417969 86.570312 6.394531 85.777344 L 5.117188 42.761719 C 5.050781 40.59375 6.597656 38.738281 8.707031 38.445312 L 8.867188 38.421875 C 11.183594 38.097656 13.3125 39.660156 13.726562 41.976562 C 15.410156 51.4375 18.539062 68.605469 19.441406 73.53125 C 19.214844 73.699219 18.992188 73.875 18.777344 74.0625 C 14.578125 77.734375 14.058594 83.992188 17.597656 88.324219 L 45.46875 122.148438 L 54.503906 135.386719 C 55.285156 136.527344 56.84375 136.824219 57.984375 136.042969 C 59.128906 135.265625 59.425781 133.707031 58.644531 132.5625 L 49.542969 119.230469 C 49.503906 119.171875 49.457031 119.109375 49.410156 119.050781 L 21.472656 85.148438 C 19.6875 82.964844 19.960938 79.683594 22.074219 77.832031 C 24.097656 76.066406 27.074219 76.148438 29 78.019531 L 49.789062 98.257812 C 50.472656 98.921875 51.242188 99.480469 52.082031 99.917969 L 67.1875 107.78125 C 69.332031 108.898438 71.183594 110.554688 72.542969 112.570312 L 86.078125 132.640625 C 87.460938 134.691406 88.230469 137.085938 88.296875 139.566406 L 88.625 151.160156 L 88.625 189.039062 C 88.625 190.425781 89.746094 191.546875 91.128906 191.546875 C 92.511719 191.546875 93.636719 190.425781 93.636719 189.039062 L 93.636719 151.125 C 93.636719 151.101562 93.636719 151.078125 93.632812 151.054688 L 93.308594 139.429688 " fill-opacity="1" fill-rule="nonzero"/></g></svg>