<svg xmlns="http://www.w3.org/2000/svg" xmlns:xlink="http://www.w3.org/1999/xlink" width="100%" viewBox="0 0 225 225" height="100%" preserveAspectRatio="xMidYMid meet" version="1.0"><defs><clipPath id="ef12da14e02"><path d="M 100 21.519531 L 190 21.519531 L 190 111 L 100 111 Z M 100 21.519531 " clip-rule="nonzero"/></clipPath><clipPath id="0ese4e206f5"><path d="M 0 114 L 224 114 L 224 202.171875 L 0 202.171875 Z M 0 114 " clip-rule="nonzero"/></clipPath></defs><g clip-path="url(#ef12a14e02)"><path fill="#000000" d="M 144.605469 110.355469 C 169.132812 110.355469 189.085938 90.429688 189.085938 65.941406 C 189.085938 41.453125 169.132812 21.527344 144.605469 21.527344 C 120.082031 21.527344 100.128906 41.453125 100.128906 65.941406 C 100.128906 90.429688 120.082031 110.355469 144.605469 110.355469 Z M 107.523438 65.941406 C 107.523438 45.523438 124.160156 28.914062 144.605469 28.914062 C 165.054688 28.914062 181.6875 45.523438 181.6875 65.941406 C 181.6875 86.359375 165.054688 102.96875 144.605469 102.96875 C 124.160156 102.96875 107.523438 86.359375 107.523438 65.941406 Z M 107.523438 65.941406 " fill-opacity="1" fill-rule="nonzero"/></g><path fill="#000000" d="M 133.742188 86.28125 C 135.664062 88.15625 138.222656 89.472656 141.035156 90.054688 L 141.007812 93.976562 C 140.992188 95.960938 142.59375 97.582031 144.578125 97.597656 L 144.605469 97.597656 C 146.574219 97.597656 148.1875 95.996094 148.203125 94.03125 L 148.234375 90.042969 C 151.039062 89.453125 153.585938 88.128906 155.496094 86.257812 C 157.714844 84.082031 158.9375 81.296875 158.9375 78.417969 L 158.9375 76.832031 C 158.9375 73.003906 156.777344 69.382812 153.160156 67.148438 L 140.332031 59.214844 C 138.828125 58.285156 137.964844 56.984375 137.964844 55.640625 L 137.964844 53.160156 C 137.964844 51.953125 138.632812 50.792969 139.847656 49.894531 C 141.171875 48.914062 142.949219 48.371094 144.851562 48.371094 C 146.753906 48.371094 148.53125 48.910156 149.855469 49.894531 C 151.070312 50.792969 151.738281 51.953125 151.738281 53.160156 L 151.738281 55.960938 C 151.738281 57.941406 153.355469 59.550781 155.339844 59.550781 C 157.324219 59.550781 158.9375 57.941406 158.9375 55.960938 L 158.9375 53.160156 C 158.9375 47.6875 154.585938 42.957031 148.449219 41.582031 L 148.449219 37.878906 C 148.449219 35.894531 146.835938 34.285156 144.851562 34.285156 C 142.867188 34.285156 141.253906 35.894531 141.253906 37.878906 L 141.253906 41.582031 C 135.117188 42.957031 130.769531 47.6875 130.769531 53.160156 L 130.769531 55.640625 C 130.769531 59.46875 132.925781 63.089844 136.542969 65.324219 L 149.375 73.257812 C 150.878906 74.1875 151.738281 75.488281 151.738281 76.832031 L 151.738281 78.417969 C 151.738281 79.625 151.070312 80.785156 149.855469 81.683594 C 148.53125 82.664062 146.753906 83.207031 144.851562 83.207031 L 144.363281 83.207031 C 142.460938 83.207031 140.683594 82.667969 139.359375 81.683594 C 138.144531 80.785156 137.476562 79.625 137.476562 78.417969 L 137.476562 76.875 C 137.476562 74.894531 135.859375 73.28125 133.878906 73.28125 C 131.894531 73.28125 130.277344 74.894531 130.277344 76.875 L 130.277344 78.417969 C 130.277344 81.3125 131.507812 84.105469 133.742188 86.28125 Z M 133.742188 86.28125 " fill-opacity="1" fill-rule="nonzero"/><g clip-path="url(#0ee4e206f5)"><path fill="#000000" d="M 219.636719 121.027344 C 214.621094 115.460938 206.605469 114.90625 200.972656 119.722656 L 167.933594 146.40625 C 167.949219 146.082031 167.953125 145.753906 167.949219 145.425781 C 167.816406 137.46875 161.558594 130.996094 154 130.996094 L 117.316406 130.996094 C 115.203125 130.996094 113.207031 129.777344 111.980469 127.734375 C 111.714844 127.292969 111.351562 126.929688 110.945312 126.609375 C 95.929688 114.777344 75.742188 113.226562 58.460938 120.898438 L 52.074219 123.734375 L 39.242188 123.734375 L 39.242188 117.882812 C 39.242188 115.785156 37.535156 114.082031 35.433594 114.082031 L 3.808594 114.082031 C 1.707031 114.082031 0 115.785156 0 117.882812 L 0 188.207031 C 0 190.308594 1.707031 192.011719 3.808594 192.011719 L 35.433594 192.011719 C 37.535156 192.011719 39.238281 190.308594 39.238281 188.207031 L 39.238281 182.175781 L 52.292969 182.175781 L 97.457031 196.492188 C 107.699219 200.273438 116.289062 202.164062 124.875 202.164062 C 131.757812 202.164062 138.640625 200.949219 146.375 198.519531 C 147.085938 198.296875 147.804688 198.0625 148.53125 197.820312 C 150.097656 197.21875 151.621094 196.503906 153.085938 195.6875 C 154.296875 195.011719 155.441406 194.230469 156.511719 193.355469 L 219.621094 141.945312 C 219.828125 141.773438 220.019531 141.585938 220.1875 141.375 C 224.882812 135.515625 224.640625 126.578125 219.636719 121.027344 Z M 31.625 184.40625 L 7.617188 184.40625 L 7.617188 121.6875 L 31.625 121.6875 Z M 214.460938 136.335938 L 155.601562 184.285156 C 150.460938 188.472656 144.433594 191.445312 137.972656 192.957031 C 125.175781 195.945312 114.628906 194.738281 100.019531 189.332031 C 99.960938 189.3125 99.902344 189.292969 99.847656 189.273438 L 54.035156 174.75 C 53.660156 174.632812 53.273438 174.570312 52.882812 174.570312 L 39.242188 174.570312 L 39.242188 131.339844 L 52.882812 131.339844 C 53.414062 131.339844 53.941406 131.226562 54.429688 131.011719 L 61.554688 127.847656 C 76.117188 121.386719 92.644531 123.082031 105.90625 132.363281 C 108.5625 136.285156 112.773438 138.601562 117.316406 138.601562 L 154 138.601562 C 157.429688 138.601562 160.269531 141.71875 160.332031 145.550781 C 160.367188 147.667969 159.601562 149.675781 158.234375 151.066406 C 157.5625 151.75 156.777344 152.242188 155.941406 152.519531 C 154.855469 152.695312 153.757812 152.785156 152.644531 152.785156 L 111.839844 152.785156 C 109.75 152.785156 108.003906 154.445312 107.976562 156.535156 C 107.949219 158.660156 109.664062 160.390625 111.785156 160.390625 L 154.324219 160.390625 C 155.46875 160.390625 156.597656 160.238281 157.683594 159.941406 C 162.429688 159.085938 166.914062 157.015625 170.851562 153.832031 L 205.804688 125.601562 C 205.839844 125.574219 205.871094 125.550781 205.902344 125.523438 C 208.359375 123.402344 211.753906 123.648438 213.976562 126.113281 C 216.429688 128.835938 216.621094 133.347656 214.460938 136.335938 Z M 214.460938 136.335938 " fill-opacity="1" fill-rule="nonzero"/></g></svg>