<svg xmlns="http://www.w3.org/2000/svg" xmlns:xlink="http://www.w3.org/1999/xlink" width="2rem" zoomAndPan="magnify" viewBox="0 0 810 809.999993" height="2rem" preserveAspectRatio="xMidYMid meet" version="1.0"><defs><clipPath id="6f8sb6e7b4e"><path d="M 119.820312 119.820312 L 689.820312 119.820312 L 689.820312 689.820312 L 119.820312 689.820312 Z M 119.820312 119.820312 " clip-rule="nonzero"/></clipPath></defs><path fill="#00ff00" d="M 405 810 C 181.25 810 0 627.5 0 405 C 0 182.5 181.25 0 405 0 C 628.75 0 810 181.25 810 405 C 810 628.75 627.5 810 405 810 Z M 405 25 C 195 25 25 195 25 405 C 25 615 195 785 405 785 C 615 785 785 615 785 405 C 785 195 613.75 25 405 25 Z M 405 25 " fill-opacity="1" fill-rule="nonzero"/><g clip-path="url(#6f8b6e7b4e)"><path fill="#00ff00" d="M 605.390625 690.171875 L 204.601562 690.171875 C 157.851562 690.171875 119.820312 652.136719 119.820312 605.390625 L 119.820312 204.601562 C 119.820312 157.851562 157.851562 119.820312 204.601562 119.820312 L 605.390625 119.820312 C 652.136719 119.820312 690.171875 157.851562 690.171875 204.601562 L 690.171875 605.390625 C 690.171875 652.136719 652.136719 690.171875 605.390625 690.171875 Z M 204.601562 150.648438 C 174.851562 150.648438 150.648438 174.851562 150.648438 204.601562 L 150.648438 605.390625 C 150.648438 635.136719 174.851562 659.339844 204.601562 659.339844 L 605.390625 659.339844 C 635.136719 659.339844 659.339844 635.136719 659.339844 605.390625 L 659.339844 204.601562 C 659.339844 174.851562 635.136719 150.648438 605.390625 150.648438 Z M 204.601562 150.648438 " fill-opacity="1" fill-rule="nonzero"/></g><path fill="#00ff00" d="M 404.996094 566.851562 C 315.746094 566.851562 243.136719 494.242188 243.136719 404.996094 C 243.136719 315.746094 315.746094 243.136719 404.996094 243.136719 C 494.242188 243.136719 566.851562 315.746094 566.851562 404.996094 C 566.851562 494.242188 494.242188 566.851562 404.996094 566.851562 Z M 404.996094 273.96875 C 332.746094 273.96875 273.96875 332.746094 273.96875 404.996094 C 273.96875 477.242188 332.746094 536.023438 404.996094 536.023438 C 477.242188 536.023438 536.023438 477.242188 536.023438 404.996094 C 536.023438 332.746094 477.242188 273.96875 404.996094 273.96875 Z M 404.996094 273.96875 " fill-opacity="1" fill-rule="nonzero"/><path fill="#00ff00" d="M 574.558594 289.382812 C 544.808594 289.382812 520.605469 265.179688 520.605469 235.429688 C 520.605469 205.683594 544.808594 181.480469 574.558594 181.480469 C 604.308594 181.480469 628.511719 205.683594 628.511719 235.429688 C 628.511719 265.179688 604.308594 289.382812 574.558594 289.382812 Z M 574.558594 212.308594 C 561.808594 212.308594 551.4375 222.679688 551.4375 235.429688 C 551.4375 248.179688 561.808594 258.554688 574.558594 258.554688 C 587.308594 258.554688 597.679688 248.179688 597.679688 235.429688 C 597.679688 222.679688 587.308594 212.308594 574.558594 212.308594 Z M 574.558594 212.308594 " fill-opacity="1" fill-rule="nonzero"/></svg>