<svg xmlns="http://www.w3.org/2000/svg" xmlns:xlink="http://www.w3.org/1999/xlink" width="100%" viewBox="0 0 225 225" height="100%" preserveAspectRatio="xMidYMid meet" version="1.0"><defs><clipPath id="fc1df1a09d3"><path d="M 0 22.546875 L 224.761719 22.546875 L 224.761719 212.195312 L 0 212.195312 Z M 0 22.546875 " clip-rule="nonzero"/></clipPath></defs><g clip-path="url(#fc1f1a09d3)"><path fill="#000000" d="M 222.609375 156.582031 L 222.492188 156.582031 C 222.234375 154.066406 221.769531 151.609375 221.105469 149.183594 C 220.816406 148.140625 220.5 147.128906 220.179688 146.234375 C 219.746094 144.847656 219.253906 143.257812 218.707031 141.492188 C 219.488281 140.65625 219.542969 139.382812 218.851562 138.457031 L 217.027344 136.148438 C 211.359375 118.167969 202.25 89.203125 196.234375 70.414062 C 196.234375 70.414062 196.523438 68.046875 196.523438 68.046875 C 196.667969 66.832031 195.859375 65.734375 194.671875 65.5 C 192.242188 57.929688 190.566406 52.8125 190.277344 52.148438 C 190.105469 51.769531 189.929688 51.425781 189.757812 51.046875 C 189.757812 51.046875 190.335938 50.585938 190.335938 50.585938 C 191.347656 49.804688 191.519531 48.332031 190.738281 47.320312 L 181.050781 35.0625 C 180.675781 34.574219 180.097656 34.253906 179.492188 34.195312 C 178.882812 34.140625 178.277344 34.3125 177.785156 34.6875 L 177.207031 35.152344 C 173.300781 32.027344 168.933594 29.542969 164.25 27.835938 L 164.335938 27.113281 C 164.480469 25.84375 163.585938 24.6875 162.3125 24.542969 C 162.3125 24.542969 146.78125 22.691406 146.78125 22.691406 C 145.507812 22.546875 144.351562 23.445312 144.207031 24.714844 C 144.207031 24.714844 144.121094 25.410156 144.121094 25.410156 C 139.148438 25.957031 134.289062 27.316406 129.777344 29.457031 L 129.34375 28.90625 C 128.5625 27.894531 127.085938 27.722656 126.074219 28.503906 L 113.785156 38.15625 C 113.175781 38.648438 112.859375 39.371094 112.917969 40.121094 C 91.226562 54.921875 56.785156 79.894531 38.246094 93.453125 L 36.972656 91.835938 C 36.191406 90.824219 34.71875 90.648438 33.707031 91.429688 L 16.875 104.640625 C 15.863281 105.421875 15.6875 106.894531 16.46875 107.90625 L 18.292969 110.246094 C 13.953125 115.566406 10.542969 121.605469 8.257812 128.082031 L 5.335938 127.734375 C 4.0625 127.589844 2.90625 128.488281 2.761719 129.757812 C 2.761719 129.757812 0.21875 151.003906 0.21875 151.003906 C 0.0742188 152.277344 0.96875 153.433594 2.242188 153.578125 L 5.164062 153.921875 C 5.828125 160.773438 7.679688 167.449219 10.65625 173.664062 L 8.371094 175.457031 C 7.359375 176.238281 7.1875 177.710938 7.96875 178.722656 L 21.183594 195.546875 C 21.964844 196.558594 23.4375 196.730469 24.453125 195.953125 C 24.453125 195.953125 26.734375 194.160156 26.734375 194.160156 C 32.085938 198.496094 38.128906 201.878906 44.636719 204.132812 L 44.289062 207.050781 C 44.144531 208.324219 45.042969 209.480469 46.316406 209.625 C 46.316406 209.625 67.570312 212.167969 67.570312 212.167969 C 67.65625 212.167969 67.746094 212.195312 67.859375 212.195312 C 69.046875 212.195312 70.027344 211.328125 70.171875 210.144531 L 70.519531 207.226562 C 74.628906 207.226562 79.601562 207.253906 85.414062 207.253906 C 103.488281 207.253906 129.460938 207.195312 160.664062 207.136719 L 163.730469 207.136719 C 163.757812 207.136719 179.289062 208.988281 179.289062 208.988281 C 179.375 208.988281 179.460938 209.015625 179.578125 209.015625 C 180.761719 209.015625 181.746094 208.121094 181.890625 206.964844 L 181.917969 206.820312 C 182.613281 206.734375 183.335938 206.703125 184.03125 206.589844 C 188.425781 205.925781 192.679688 204.59375 196.667969 202.6875 L 196.753906 202.800781 C 197.132812 203.292969 197.710938 203.613281 198.316406 203.667969 C 198.925781 203.726562 199.53125 203.582031 200.023438 203.179688 L 212.3125 193.523438 C 213.328125 192.742188 213.5 191.269531 212.71875 190.257812 C 212.71875 190.257812 212.632812 190.140625 212.632812 190.140625 C 215.871094 186.152344 218.417969 181.613281 220.152344 176.789062 C 220.152344 176.789062 220.296875 176.816406 220.296875 176.816406 C 221.570312 176.960938 222.726562 176.066406 222.871094 174.792969 C 222.871094 174.792969 224.722656 159.269531 224.722656 159.269531 C 224.808594 157.914062 223.910156 156.726562 222.609375 156.582031 Z M 214.800781 144.585938 C 215.121094 145.628906 215.4375 146.667969 215.785156 147.679688 C 216.101562 148.574219 216.390625 149.5 216.652344 150.425781 C 217.144531 152.246094 217.519531 154.125 217.78125 156.003906 C 217.78125 156.003906 215.320312 155.714844 215.320312 155.714844 C 214.859375 152.476562 213.960938 149.296875 212.660156 146.261719 C 212.660156 146.261719 214.800781 144.585938 214.800781 144.585938 Z M 186.027344 53.996094 C 185.996094 53.996094 185.996094 53.996094 186.027344 53.996094 C 186.257812 54.605469 187.558594 58.5625 189.582031 64.867188 L 187.183594 64.578125 C 186.691406 61.339844 185.824219 58.160156 184.523438 55.125 Z M 163.640625 32.578125 C 167.140625 33.964844 170.4375 35.816406 173.417969 38.097656 L 171.972656 39.226562 C 169.339844 37.261719 166.449219 35.640625 163.410156 34.429688 Z M 143.515625 30.148438 L 143.28125 31.972656 C 140.042969 32.433594 136.863281 33.328125 133.824219 34.628906 L 132.667969 33.183594 C 136.140625 31.683594 139.785156 30.671875 143.515625 30.148438 Z M 127.058594 33.5625 L 131.308594 38.9375 C 131.976562 39.804688 133.160156 40.066406 134.144531 39.601562 C 137.730469 37.867188 141.605469 36.769531 145.597656 36.394531 C 146.695312 36.277344 147.5625 35.441406 147.679688 34.339844 L 148.488281 27.546875 L 159.390625 28.847656 L 158.609375 35.640625 C 158.496094 36.742188 159.132812 37.753906 160.144531 38.128906 C 163.929688 39.429688 167.429688 41.421875 170.523438 43.96875 C 171.363281 44.660156 172.578125 44.660156 173.445312 43.996094 L 178.824219 39.746094 L 185.621094 48.390625 L 180.242188 52.636719 C 179.375 53.304688 179.113281 54.488281 179.578125 55.472656 C 181.3125 59.054688 182.410156 62.929688 182.789062 66.917969 C 182.902344 68.015625 183.742188 68.882812 184.839844 69 L 191.636719 69.808594 L 190.335938 80.707031 L 183.539062 79.894531 C 182.441406 79.78125 181.429688 80.417969 181.050781 81.429688 C 179.75 85.214844 177.753906 88.710938 175.210938 91.804688 C 174.515625 92.644531 174.515625 93.859375 175.179688 94.726562 L 179.433594 100.101562 L 170.785156 106.894531 L 166.535156 101.519531 C 165.871094 100.652344 164.683594 100.390625 163.699219 100.851562 C 160.113281 102.585938 156.210938 103.6875 152.246094 104.0625 C 151.148438 104.175781 150.28125 105.015625 150.164062 106.113281 L 149.355469 112.90625 L 138.453125 111.605469 L 139.261719 104.8125 C 139.40625 103.714844 138.742188 102.703125 137.730469 102.328125 C 133.941406 101.027344 130.441406 99.03125 127.347656 96.488281 C 126.507812 95.792969 125.292969 95.792969 124.425781 96.460938 L 119.046875 100.707031 L 112.253906 92.066406 L 117.632812 87.816406 C 118.5 87.152344 118.757812 85.964844 118.296875 84.984375 C 116.5625 81.398438 115.460938 77.496094 115.085938 73.539062 C 114.96875 72.4375 114.132812 71.570312 113.03125 71.457031 L 106.238281 70.648438 L 107.539062 59.75 L 114.335938 60.558594 C 115.402344 60.675781 116.445312 60.039062 116.820312 59.027344 C 118.121094 55.238281 120.117188 51.742188 122.664062 48.648438 C 123.355469 47.8125 123.355469 46.597656 122.691406 45.730469 L 118.441406 40.355469 Z M 12.96875 128.601562 C 14.9375 123.3125 17.714844 118.398438 21.210938 113.945312 C 21.210938 113.945312 23.0625 116.316406 23.0625 116.316406 C 20.113281 120.160156 17.714844 124.441406 15.949219 128.949219 C 15.921875 128.949219 12.96875 128.601562 12.96875 128.601562 Z M 9.847656 154.445312 C 9.847656 154.445312 12.855469 154.789062 12.855469 154.789062 C 13.492188 159.617188 14.820312 164.300781 16.789062 168.75 L 14.386719 170.628906 C 12.015625 165.515625 10.484375 160.050781 9.847656 154.445312 Z M 45.15625 199.332031 C 39.867188 197.367188 34.921875 194.59375 30.46875 191.125 C 30.46875 191.125 32.867188 189.246094 32.867188 189.246094 C 36.714844 192.195312 40.992188 194.59375 45.503906 196.355469 Z M 70.984375 202.542969 C 70.984375 202.542969 71.359375 199.449219 71.359375 199.449219 C 76.1875 198.8125 80.875 197.484375 85.328125 195.519531 L 90.851562 202.542969 C 83.332031 202.542969 76.476562 202.542969 70.984375 202.542969 Z M 87.871094 191.210938 C 87.207031 190.34375 86.023438 190.085938 85.039062 190.546875 C 80.035156 192.976562 74.628906 194.507812 69.074219 195.027344 C 67.976562 195.144531 67.109375 195.980469 66.992188 197.078125 L 65.777344 207.226562 L 49.148438 205.230469 L 50.363281 195.085938 C 50.507812 193.988281 49.84375 192.976562 48.832031 192.597656 C 43.566406 190.777344 38.679688 188.03125 34.371094 184.476562 C 33.53125 183.78125 32.316406 183.753906 31.449219 184.449219 L 23.382812 190.777344 L 13.027344 177.625 L 21.066406 171.296875 C 21.9375 170.628906 22.195312 169.445312 21.734375 168.460938 C 19.304688 163.460938 17.769531 158.058594 17.25 152.507812 C 17.136719 151.410156 16.296875 150.542969 15.199219 150.425781 L 5.046875 149.183594 L 7.042969 132.5625 L 17.191406 133.777344 C 18.261719 133.890625 19.304688 133.257812 19.679688 132.246094 C 21.5 126.984375 24.277344 122.097656 27.804688 117.792969 C 28.5 116.953125 28.5 115.738281 27.835938 114.871094 L 21.5 106.808594 L 34.660156 96.460938 L 40.992188 104.496094 C 41.660156 105.363281 42.84375 105.621094 43.828125 105.160156 C 48.832031 102.730469 54.238281 101.199219 59.792969 100.679688 C 60.890625 100.5625 61.757812 99.726562 61.875 98.628906 L 63.089844 88.480469 L 79.71875 90.476562 L 78.503906 100.621094 C 78.359375 101.71875 79.023438 102.730469 80.035156 103.109375 C 85.296875 104.929688 90.1875 107.675781 94.496094 111.230469 C 95.332031 111.921875 96.546875 111.921875 97.417969 111.257812 L 105.457031 104.929688 L 115.808594 118.082031 L 107.769531 124.410156 C 106.902344 125.074219 106.640625 126.261719 107.105469 127.242188 C 109.535156 132.246094 111.066406 137.648438 111.585938 143.199219 C 111.703125 144.296875 112.542969 145.164062 113.640625 145.28125 L 123.789062 146.496094 L 121.796875 163.117188 L 111.644531 161.902344 C 110.546875 161.785156 109.535156 162.421875 109.15625 163.433594 C 107.335938 168.695312 104.558594 173.578125 101.03125 177.886719 C 100.335938 178.722656 100.335938 179.9375 101.003906 180.804688 L 107.335938 188.839844 L 94.175781 199.246094 Z M 161.9375 202.398438 C 161.9375 202.398438 160.605469 202.398438 160.605469 202.398438 C 145.308594 202.425781 119.480469 202.484375 97.53125 202.511719 L 112.050781 191.097656 C 113.0625 190.316406 113.234375 188.839844 112.453125 187.828125 C 112.453125 187.828125 105.832031 179.390625 105.832031 179.390625 C 108.78125 175.542969 111.183594 171.265625 112.945312 166.757812 L 123.589844 168.027344 C 124.859375 168.203125 126.019531 167.277344 126.164062 166.035156 C 126.164062 166.035156 126.164062 166.007812 126.164062 166.007812 L 128.707031 144.761719 C 128.851562 143.488281 127.957031 142.332031 126.683594 142.1875 C 126.683594 142.1875 116.039062 140.914062 116.039062 140.914062 C 115.402344 136.089844 114.074219 131.40625 112.105469 126.953125 L 120.550781 120.335938 C 121.5625 119.554688 121.738281 118.082031 120.957031 117.070312 L 107.710938 100.273438 C 106.929688 99.261719 105.457031 99.089844 104.445312 99.871094 C 104.445312 99.871094 96 106.488281 96 106.488281 C 92.152344 103.542969 87.871094 101.140625 83.359375 99.378906 L 84.632812 88.742188 C 84.777344 87.46875 83.882812 86.3125 82.609375 86.167969 C 82.609375 86.167969 61.351562 83.625 61.351562 83.625 C 60.082031 83.480469 58.925781 84.375 58.78125 85.648438 C 58.78125 85.648438 57.507812 96.285156 57.507812 96.285156 C 52.675781 96.921875 47.992188 98.25 43.539062 100.21875 L 41.050781 97.066406 C 59.589844 83.539062 93.773438 58.738281 115.375 43.96875 L 117.890625 47.148438 C 115.925781 49.777344 114.304688 52.636719 113.089844 55.703125 L 105.773438 54.835938 C 104.5 54.691406 103.34375 55.585938 103.199219 56.859375 L 101.347656 72.382812 C 101.203125 73.652344 102.101562 74.808594 103.375 74.953125 C 103.375 74.953125 110.691406 75.820312 110.691406 75.820312 C 111.152344 79.058594 112.050781 82.238281 113.351562 85.273438 L 107.566406 89.8125 C 106.554688 90.589844 106.382812 92.066406 107.164062 93.078125 C 107.164062 93.078125 116.820312 105.363281 116.820312 105.363281 C 117.601562 106.375 119.078125 106.546875 120.089844 105.765625 C 120.089844 105.765625 125.875 101.230469 125.875 101.230469 C 128.503906 103.195312 131.367188 104.8125 134.433594 106.027344 L 133.566406 113.339844 C 133.421875 114.613281 134.316406 115.769531 135.589844 115.914062 C 135.589844 115.914062 151.121094 117.761719 151.121094 117.761719 C 151.207031 117.761719 151.292969 117.792969 151.410156 117.792969 C 152.59375 117.792969 153.578125 116.925781 153.722656 115.738281 L 154.589844 108.425781 C 157.828125 107.964844 161.011719 107.066406 164.046875 105.765625 L 168.585938 111.546875 C 169.367188 112.558594 170.84375 112.734375 171.855469 111.953125 L 184.148438 102.296875 C 185.160156 101.519531 185.332031 100.042969 184.550781 99.03125 C 184.550781 99.03125 180.011719 93.25 180.011719 93.25 C 181.976562 90.621094 183.597656 87.730469 184.8125 84.695312 L 192.128906 85.5625 C 193.402344 85.707031 194.558594 84.808594 194.703125 83.539062 L 194.933594 81.542969 C 198.894531 93.972656 203.78125 109.523438 208.960938 125.886719 C 208.582031 125.566406 208.148438 125.335938 207.660156 125.277344 C 207.050781 125.21875 206.445312 125.394531 205.953125 125.769531 L 200.167969 130.308594 C 197.535156 128.34375 194.671875 126.722656 191.609375 125.507812 L 192.476562 118.195312 C 192.621094 116.925781 191.722656 115.769531 190.449219 115.625 C 190.449219 115.625 174.921875 113.773438 174.921875 113.773438 C 174.3125 113.714844 173.707031 113.890625 173.214844 114.265625 C 172.722656 114.640625 172.40625 115.191406 172.347656 115.824219 L 171.480469 123.140625 C 168.242188 123.601562 165.058594 124.496094 162.023438 125.796875 L 157.484375 120.015625 C 157.105469 119.527344 156.527344 119.207031 155.921875 119.148438 C 155.3125 119.09375 154.707031 119.265625 154.214844 119.640625 L 141.921875 129.296875 C 140.910156 130.078125 140.738281 131.550781 141.519531 132.5625 C 141.519531 132.5625 146.058594 138.34375 146.058594 138.34375 C 144.09375 140.972656 142.472656 143.835938 141.257812 146.898438 L 133.941406 146.03125 C 132.667969 145.886719 131.511719 146.785156 131.367188 148.054688 C 131.367188 148.054688 129.515625 163.578125 129.515625 163.578125 C 129.371094 164.851562 130.269531 166.007812 131.542969 166.152344 C 131.542969 166.152344 138.859375 167.015625 138.859375 167.015625 C 139.320312 170.253906 140.21875 173.433594 141.519531 176.46875 L 135.734375 181.007812 C 134.722656 181.789062 134.550781 183.261719 135.328125 184.273438 C 135.328125 184.273438 144.988281 196.558594 144.988281 196.558594 C 145.769531 197.570312 147.246094 197.742188 148.257812 196.964844 L 154.042969 192.425781 C 156.671875 194.390625 159.535156 196.007812 162.601562 197.222656 C 162.542969 197.164062 161.9375 202.398438 161.9375 202.398438 Z M 183.25 201.90625 C 182.960938 201.933594 182.671875 201.964844 182.410156 201.992188 L 182.699219 199.566406 C 185.941406 199.101562 189.121094 198.207031 192.15625 196.90625 L 193.660156 198.84375 C 190.335938 200.34375 186.835938 201.355469 183.25 201.90625 Z M 215.351562 176.152344 C 213.933594 179.792969 211.996094 183.203125 209.597656 186.296875 C 209.597656 186.296875 208.09375 184.390625 208.09375 184.390625 C 210.058594 181.757812 211.679688 178.898438 212.894531 175.832031 C 212.894531 175.863281 215.351562 176.152344 215.351562 176.152344 Z M 218.445312 171.816406 L 211.648438 171.007812 C 210.550781 170.863281 209.539062 171.527344 209.160156 172.539062 C 207.859375 176.324219 205.867188 179.824219 203.320312 182.914062 C 202.625 183.753906 202.625 184.96875 203.292969 185.835938 L 207.542969 191.242188 L 198.894531 198.03125 L 194.644531 192.65625 C 193.980469 191.789062 192.792969 191.53125 191.808594 191.992188 C 188.222656 193.726562 184.320312 194.824219 180.359375 195.199219 C 179.257812 195.316406 178.390625 196.152344 178.277344 197.253906 L 177.464844 204.046875 L 166.5625 202.746094 L 167.375 195.953125 C 167.488281 194.851562 166.851562 193.84375 165.839844 193.464844 C 162.050781 192.164062 158.550781 190.171875 155.457031 187.628906 C 154.621094 186.933594 153.40625 186.90625 152.539062 187.597656 L 147.15625 191.847656 L 140.390625 183.203125 L 145.769531 178.957031 C 146.636719 178.289062 146.898438 177.105469 146.433594 176.121094 C 144.699219 172.539062 143.601562 168.664062 143.226562 164.675781 C 143.109375 163.578125 142.269531 162.710938 141.171875 162.59375 L 134.375 161.785156 L 135.675781 150.886719 L 142.472656 151.699219 C 143.542969 151.8125 144.585938 151.175781 144.960938 150.164062 C 146.261719 146.378906 148.257812 142.882812 150.800781 139.789062 C 151.496094 138.949219 151.496094 137.734375 150.832031 136.867188 L 146.578125 131.492188 L 155.226562 124.699219 L 159.476562 130.078125 C 160.144531 130.945312 161.328125 131.203125 162.3125 130.742188 C 165.898438 129.007812 169.800781 127.910156 173.765625 127.53125 C 174.863281 127.417969 175.730469 126.578125 175.847656 125.480469 L 176.65625 118.6875 L 187.558594 119.988281 L 186.75 126.78125 C 186.605469 127.878906 187.269531 128.890625 188.28125 129.265625 C 192.070312 130.566406 195.570312 132.5625 198.664062 135.105469 C 199.503906 135.800781 200.71875 135.828125 201.585938 135.136719 L 206.992188 130.886719 L 213.789062 139.527344 L 208.351562 143.75 C 207.484375 144.414062 207.222656 145.597656 207.6875 146.582031 C 209.421875 150.164062 210.519531 154.066406 210.898438 158.027344 C 211.011719 159.125 211.851562 159.992188 212.949219 160.109375 L 219.746094 160.917969 Z M 218.445312 171.816406 " fill-opacity="1" fill-rule="nonzero"/></g><path fill="#000000" d="M 146.984375 86.3125 C 147.621094 86.398438 148.285156 86.429688 148.949219 86.429688 C 152.566406 86.429688 156.09375 85.214844 158.929688 82.960938 C 165.957031 77.441406 167.199219 67.265625 161.675781 60.210938 C 156.152344 53.160156 145.972656 51.945312 138.914062 57.464844 C 131.886719 62.988281 130.644531 73.160156 136.167969 80.214844 C 138.828125 83.625 142.734375 85.820312 146.984375 86.3125 Z M 148.894531 58.679688 C 149.355469 58.679688 149.820312 58.707031 150.28125 58.765625 C 153.316406 59.140625 156.09375 60.675781 158.003906 63.101562 C 161.9375 68.132812 161.070312 75.386719 156.066406 79.316406 C 151.035156 83.25 143.773438 82.382812 139.839844 77.382812 C 138.25 75.359375 137.382812 72.84375 137.382812 70.269531 C 137.355469 63.882812 142.53125 58.679688 148.894531 58.679688 Z M 148.894531 58.679688 " fill-opacity="1" fill-rule="nonzero"/><path fill="#000000" d="M 180.214844 134.933594 C 165.609375 133.199219 152.363281 143.605469 150.628906 158.171875 C 148.894531 172.769531 159.304688 186.007812 173.878906 187.742188 C 174.949219 187.859375 176.019531 187.945312 177.089844 187.945312 C 191.78125 187.917969 203.667969 175.976562 203.636719 161.292969 C 203.636719 147.851562 193.574219 136.523438 180.214844 134.933594 Z M 198.867188 163.953125 C 197.421875 175.976562 186.488281 184.59375 174.457031 183.148438 C 162.429688 181.703125 153.808594 170.773438 155.253906 158.75 C 156.703125 146.726562 167.632812 138.113281 179.664062 139.558594 C 185.449219 140.25 190.710938 143.199219 194.328125 147.796875 C 197.941406 152.363281 199.589844 158.171875 198.867188 163.953125 Z M 198.867188 163.953125 " fill-opacity="1" fill-rule="nonzero"/><path fill="#000000" d="M 68.671875 112.589844 C 49.148438 110.304688 31.480469 124.265625 29.222656 143.777344 C 26.9375 163.203125 40.792969 180.804688 60.226562 183.175781 C 61.640625 183.347656 63.058594 183.4375 64.476562 183.4375 C 82.203125 183.4375 97.589844 170.140625 99.757812 152.101562 C 102.070312 132.589844 88.160156 114.902344 68.671875 112.589844 Z M 95.132812 151.554688 C 93.105469 168.492188 77.722656 180.574219 60.773438 178.550781 C 43.828125 176.527344 31.738281 161.148438 33.765625 144.210938 C 35.789062 127.273438 51.171875 115.191406 68.121094 117.214844 C 76.246094 118.195312 83.679688 122.359375 88.742188 128.804688 C 93.800781 135.222656 96.085938 143.402344 95.132812 151.554688 Z M 95.132812 151.554688 " fill-opacity="1" fill-rule="nonzero"/><path fill="#000000" d="M 122.488281 67.0625 C 120.753906 81.660156 131.164062 94.898438 145.742188 96.632812 C 160.34375 98.367188 173.589844 87.960938 175.324219 73.394531 C 177.0625 58.796875 166.648438 45.558594 152.074219 43.824219 C 137.5 42.058594 124.253906 52.464844 122.488281 67.0625 Z M 127.085938 67.902344 C 127.085938 67.8125 127.117188 67.699219 127.117188 67.613281 C 128.5625 55.585938 139.496094 46.972656 151.523438 48.417969 C 163.554688 49.863281 172.171875 60.789062 170.726562 72.816406 C 169.28125 84.839844 158.351562 93.453125 146.320312 92.007812 C 134.347656 90.679688 125.730469 79.867188 127.085938 67.902344 Z M 127.085938 67.902344 " fill-opacity="1" fill-rule="nonzero"/><path fill="#000000" d="M 67.3125 124.0625 C 54.152344 122.472656 42.207031 131.867188 40.617188 145.019531 C 39.027344 158.171875 48.425781 170.109375 61.585938 171.699219 C 62.539062 171.816406 63.492188 171.875 64.449219 171.875 C 76.59375 171.875 86.832031 162.796875 88.277344 150.742188 C 89.839844 137.589844 80.46875 125.625 67.3125 124.0625 Z M 83.648438 150.164062 C 82.378906 160.773438 72.746094 168.347656 62.132812 167.074219 C 57.042969 166.46875 52.386719 163.867188 49.207031 159.820312 C 46.027344 155.773438 44.609375 150.65625 45.214844 145.570312 C 46.488281 134.960938 56.117188 127.386719 66.730469 128.660156 C 77.347656 129.933594 84.921875 139.558594 83.648438 150.164062 Z M 83.648438 150.164062 " fill-opacity="1" fill-rule="nonzero"/><path fill="#000000" d="M 179 145.078125 C 170.003906 144.007812 161.847656 150.398438 160.78125 159.386719 C 159.710938 168.375 166.101562 176.527344 175.09375 177.597656 C 175.761719 177.683594 176.425781 177.710938 177.089844 177.710938 C 185.359375 177.683594 192.332031 171.496094 193.3125 163.289062 C 194.414062 154.328125 187.992188 146.175781 179 145.078125 Z M 188.714844 162.738281 C 187.933594 169.15625 182.09375 173.753906 175.671875 173 C 169.253906 172.21875 164.65625 166.382812 165.40625 159.964844 C 166.1875 153.546875 172.027344 148.953125 178.449219 149.703125 C 184.898438 150.484375 189.46875 156.324219 188.714844 162.738281 Z M 188.714844 162.738281 " fill-opacity="1" fill-rule="nonzero"/></svg>