<svg xmlns="http://www.w3.org/2000/svg" xmlns:xlink="http://www.w3.org/1999/xlink" width="2rem" zoomAndPan="magnify" viewBox="0 0 810 809.999993" height="2rem" preserveAspectRatio="xMidYMid meet" version="1.0"><path fill="#00ff00" d="M 405 810 C 181.25 810 0 627.5 0 405 C 0 182.5 181.25 0 405 0 C 628.75 0 810 181.25 810 405 C 810 628.75 627.5 810 405 810 Z M 405 25 C 195 25 25 195 25 405 C 25 615 195 785 405 785 C 615 785 785 615 785 405 C 785 195 613.75 25 405 25 Z M 405 25 " fill-opacity="1" fill-rule="nonzero"/><path stroke-linecap="round" transform="matrix(1.205951, -0.0374473, 0.0374473, 1.205951, 169.545727, 143.435199)" fill="none" stroke-linejoin="miter" d="M 4.999182 4.999665 L 91.652825 4.998714 " stroke="#00ff00" stroke-width="10" stroke-opacity="1" stroke-miterlimit="4"/><path stroke-linecap="round" transform="matrix(1.205594, 0.0475733, -0.0475733, 1.205594, 521.306929, 653.678003)" fill="none" stroke-linejoin="miter" d="M 5.000565 5.0012 L 96.426528 4.999728 " stroke="#00ff00" stroke-width="10" stroke-opacity="1" stroke-miterlimit="4"/><path stroke-linecap="butt" transform="matrix(0.665185, -1.006602, 1.006602, 0.665185, 218.600997, 661.202387)" fill="none" stroke-linejoin="miter" d="M 0.000124412 4.99873 L 224.084001 4.99998 " stroke="#00ff00" stroke-width="10" stroke-opacity="1" stroke-miterlimit="4"/><path stroke-linecap="round" transform="matrix(0.687097, 0.991775, -0.991775, 0.687097, 174.691797, 141.080007)" fill="none" stroke-linejoin="miter" d="M 4.998627 4.999492 L 519.32728 4.998689 " stroke="#00ff00" stroke-width="10" stroke-opacity="1" stroke-miterlimit="4"/><path stroke-linecap="round" transform="matrix(0.685415, 0.992938, -0.992938, 0.685415, 281.257285, 137.940087)" fill="none" stroke-linejoin="miter" d="M 4.999689 5.00071 L 526.018391 5.001383 " stroke="#00ff00" stroke-width="10" stroke-opacity="1" stroke-miterlimit="4"/><path stroke-linecap="butt" transform="matrix(0.665185, -1.006602, 1.006602, 0.665185, 430.999326, 368.080108)" fill="none" stroke-linejoin="miter" d="M -0.000645263 4.999347 L 224.083231 5.000597 " stroke="#00ff00" stroke-width="10" stroke-opacity="1" stroke-miterlimit="4"/></svg>