<svg xmlns="http://www.w3.org/2000/svg" xmlns:xlink="http://www.w3.org/1999/xlink" width="2rem" zoomAndPan="magnify" viewBox="0 0 810 809.999993" height="2rem" preserveAspectRatio="xMidYMid meet" version="1.0"><defs><clipPath id="5a02fd6694"><path d="M 85.503906 184.394531 L 724.503906 184.394531 L 724.503906 625.394531 L 85.503906 625.394531 Z M 85.503906 184.394531 " clip-rule="nonzero"/></clipPath></defs><path fill="#00ff00" d="M 405 810 C 181.25 810 0 627.5 0 405 C 0 182.5 181.25 0 405 0 C 628.75 0 810 181.25 810 405 C 810 628.75 627.5 810 405 810 Z M 405 25 C 195 25 25 195 25 405 C 25 615 195 785 405 785 C 615 785 785 615 785 405 C 785 195 613.75 25 405 25 Z M 405 25 " fill-opacity="1" fill-rule="nonzero"/><path fill="#00ff00" d="M 708.40625 258.101562 C 702.328125 219.097656 668.898438 191.238281 629.894531 191.238281 L 180.601562 191.238281 C 141.597656 191.238281 108.167969 219.605469 102.089844 258.101562 C 96.515625 294.066406 90.945312 344.210938 90.945312 405.5 C 91.449219 466.792969 96.515625 516.9375 102.089844 552.902344 C 108.167969 591.398438 141.597656 619.765625 180.601562 619.765625 L 629.386719 619.765625 C 668.390625 619.765625 702.328125 591.398438 707.902344 552.902344 C 713.472656 516.433594 719.042969 466.792969 719.042969 405.5 C 719.042969 344.210938 713.980469 294.066406 708.40625 258.101562 Z M 338.640625 491.105469 L 338.640625 320.402344 L 497.691406 406.007812 Z M 338.640625 491.105469 " fill-opacity="1" fill-rule="nonzero"/><g clip-path="url(#5a02fd6694)"><path fill="#00ff00" d="M 404.996094 1006.753906 C 73.722656 1006.753906 -196.257812 737.28125 -196.257812 405.5 C -196.257812 74.230469 73.722656 -195.753906 404.996094 -195.753906 C 736.265625 -195.753906 1006.25 74.230469 1006.25 405.5 C 1006.25 737.28125 736.773438 1006.753906 404.996094 1006.753906 Z M 404.996094 -162.828125 C 91.449219 -162.828125 -163.335938 91.957031 -163.335938 405.5 C -163.335938 719.046875 91.449219 973.832031 404.996094 973.832031 C 718.539062 973.832031 973.324219 719.046875 973.324219 405.5 C 973.324219 91.957031 718.539062 -162.828125 404.996094 -162.828125 Z M 404.996094 -162.828125 " fill-opacity="1" fill-rule="nonzero"/></g></svg>