<svg xmlns="http://www.w3.org/2000/svg" xmlns:xlink="http://www.w3.org/1999/xlink" width="1080" zoomAndPan="magnify" viewBox="0 0 810 809.999993" height="1080" preserveAspectRatio="xMidYMid meet" version="1.0"><defs><clipPath id="d22091c1cc2"><path d="M 0 676 L 30 676 L 30 802 L 0 802 Z M 0 676 " clip-rule="nonzero"/></clipPath><clipPath id="de2c776f1cc"><path d="M -194.503906 218.128906 L 170.421875 707.554688 L -151.855469 947.851562 L -516.78125 458.421875 Z M -194.503906 218.128906 " clip-rule="nonzero"/></clipPath><clipPath id="d3900073d6b"><path d="M -194.503906 218.128906 L 170.421875 707.554688 L -151.855469 947.851562 L -516.78125 458.421875 Z M -194.503906 218.128906 " clip-rule="nonzero"/></clipPath><clipPath id="d5128c50c67"><path d="M 0 616 L 137 616 L 137 783 L 0 783 Z M 0 616 " clip-rule="nonzero"/></clipPath><clipPath id="d5c4f27c188"><path d="M -194.503906 218.128906 L 170.421875 707.554688 L -151.855469 947.851562 L -516.78125 458.421875 Z M -194.503906 218.128906 " clip-rule="nonzero"/></clipPath><clipPath id="db86d0e5cf1"><path d="M -194.503906 218.128906 L 170.421875 707.554688 L -151.855469 947.851562 L -516.78125 458.421875 Z M -194.503906 218.128906 " clip-rule="nonzero"/></clipPath><clipPath id="dd5afb1a456"><path d="M 323 496 L 448 496 L 448 615 L 323 615 Z M 323 496 " clip-rule="nonzero"/></clipPath><clipPath id="d0a9f2bd0c6"><path d="M 665.574219 1025.089844 L 198.9375 631.441406 L 458.144531 324.171875 L 924.78125 717.820312 Z M 665.574219 1025.089844 " clip-rule="nonzero"/></clipPath><clipPath id="d8b8025603e"><path d="M 665.574219 1025.089844 L 198.9375 631.441406 L 458.144531 324.171875 L 924.78125 717.820312 Z M 665.574219 1025.089844 " clip-rule="nonzero"/></clipPath><clipPath id="d838753bde3"><path d="M 473 481 L 608 481 L 608 611 L 473 611 Z M 473 481 " clip-rule="nonzero"/></clipPath><clipPath id="d89ac69bf3d"><path d="M 665.574219 1025.089844 L 198.9375 631.441406 L 458.144531 324.171875 L 924.78125 717.820312 Z M 665.574219 1025.089844 " clip-rule="nonzero"/></clipPath><clipPath id="db5bef2ee5b"><path d="M 665.574219 1025.089844 L 198.9375 631.441406 L 458.144531 324.171875 L 924.78125 717.820312 Z M 665.574219 1025.089844 " clip-rule="nonzero"/></clipPath><clipPath id="d92937a9a8d"><path d="M 419 510 L 498 510 L 498 584 L 419 584 Z M 419 510 " clip-rule="nonzero"/></clipPath><clipPath id="db4d7a94134"><path d="M 665.574219 1025.089844 L 198.9375 631.441406 L 458.144531 324.171875 L 924.78125 717.820312 Z M 665.574219 1025.089844 " clip-rule="nonzero"/></clipPath><clipPath id="d7d10c22bab"><path d="M 665.574219 1025.089844 L 198.9375 631.441406 L 458.144531 324.171875 L 924.78125 717.820312 Z M 665.574219 1025.089844 " clip-rule="nonzero"/></clipPath><clipPath id="d0bdfa50d1e"><path d="M 374 368 L 562 368 L 562 548 L 374 548 Z M 374 368 " clip-rule="nonzero"/></clipPath><clipPath id="d2c92e1db80"><path d="M 665.574219 1025.089844 L 198.9375 631.441406 L 458.144531 324.171875 L 924.78125 717.820312 Z M 665.574219 1025.089844 " clip-rule="nonzero"/></clipPath><clipPath id="dea4f263a09"><path d="M 665.574219 1025.089844 L 198.9375 631.441406 L 458.144531 324.171875 L 924.78125 717.820312 Z M 665.574219 1025.089844 " clip-rule="nonzero"/></clipPath><clipPath id="d25075e84bd"><path d="M 598 558 L 683 558 L 683 640 L 598 640 Z M 598 558 " clip-rule="nonzero"/></clipPath><clipPath id="d7b5d232c21"><path d="M 665.574219 1025.089844 L 198.9375 631.441406 L 458.144531 324.171875 L 924.78125 717.820312 Z M 665.574219 1025.089844 " clip-rule="nonzero"/></clipPath><clipPath id="dc10d2d57b1"><path d="M 665.574219 1025.089844 L 198.9375 631.441406 L 458.144531 324.171875 L 924.78125 717.820312 Z M 665.574219 1025.089844 " clip-rule="nonzero"/></clipPath><clipPath id="da9cac71593"><path d="M 554 475 L 663 475 L 663 579 L 554 579 Z M 554 475 " clip-rule="nonzero"/></clipPath><clipPath id="dbefb3d54e3"><path d="M 665.574219 1025.089844 L 198.9375 631.441406 L 458.144531 324.171875 L 924.78125 717.820312 Z M 665.574219 1025.089844 " clip-rule="nonzero"/></clipPath><clipPath id="d5d2b2bbdeb"><path d="M 665.574219 1025.089844 L 198.9375 631.441406 L 458.144531 324.171875 L 924.78125 717.820312 Z M 665.574219 1025.089844 " clip-rule="nonzero"/></clipPath><clipPath id="d3aebc793a1"><path d="M 545 638 L 587 638 L 587 678 L 545 678 Z M 545 638 " clip-rule="nonzero"/></clipPath><clipPath id="d2c8d737c77"><path d="M 665.574219 1025.089844 L 198.9375 631.441406 L 458.144531 324.171875 L 924.78125 717.820312 Z M 665.574219 1025.089844 " clip-rule="nonzero"/></clipPath><clipPath id="d187db71537"><path d="M 665.574219 1025.089844 L 198.9375 631.441406 L 458.144531 324.171875 L 924.78125 717.820312 Z M 665.574219 1025.089844 " clip-rule="nonzero"/></clipPath><clipPath id="de6c2ee3f8a"><path d="M 463 668 L 553 668 L 553 754 L 463 754 Z M 463 668 " clip-rule="nonzero"/></clipPath><clipPath id="db79eb4f68d"><path d="M 665.574219 1025.089844 L 198.9375 631.441406 L 458.144531 324.171875 L 924.78125 717.820312 Z M 665.574219 1025.089844 " clip-rule="nonzero"/></clipPath><clipPath id="d6f1ac644f3"><path d="M 665.574219 1025.089844 L 198.9375 631.441406 L 458.144531 324.171875 L 924.78125 717.820312 Z M 665.574219 1025.089844 " clip-rule="nonzero"/></clipPath><clipPath id="d5669cd1930"><path d="M 663 788 L 687 788 L 687 810 L 663 810 Z M 663 788 " clip-rule="nonzero"/></clipPath><clipPath id="dc3f9d7733b"><path d="M 665.574219 1025.089844 L 198.9375 631.441406 L 458.144531 324.171875 L 924.78125 717.820312 Z M 665.574219 1025.089844 " clip-rule="nonzero"/></clipPath><clipPath id="dddb0812021"><path d="M 665.574219 1025.089844 L 198.9375 631.441406 L 458.144531 324.171875 L 924.78125 717.820312 Z M 665.574219 1025.089844 " clip-rule="nonzero"/></clipPath><clipPath id="d5882d1aed6"><path d="M 675 602 L 810 602 L 810 733 L 675 733 Z M 675 602 " clip-rule="nonzero"/></clipPath><clipPath id="d0c0dd4bec5"><path d="M 665.574219 1025.089844 L 198.9375 631.441406 L 458.144531 324.171875 L 924.78125 717.820312 Z M 665.574219 1025.089844 " clip-rule="nonzero"/></clipPath><clipPath id="d2cd6a4bedb"><path d="M 665.574219 1025.089844 L 198.9375 631.441406 L 458.144531 324.171875 L 924.78125 717.820312 Z M 665.574219 1025.089844 " clip-rule="nonzero"/></clipPath><clipPath id="d17ace3506a"><path d="M 487 586 L 542 586 L 542 639 L 487 639 Z M 487 586 " clip-rule="nonzero"/></clipPath><clipPath id="dcdd69a5f6e"><path d="M 665.574219 1025.089844 L 198.9375 631.441406 L 458.144531 324.171875 L 924.78125 717.820312 Z M 665.574219 1025.089844 " clip-rule="nonzero"/></clipPath><clipPath id="dca6f752b62"><path d="M 665.574219 1025.089844 L 198.9375 631.441406 L 458.144531 324.171875 L 924.78125 717.820312 Z M 665.574219 1025.089844 " clip-rule="nonzero"/></clipPath><clipPath id="d8d0de50255"><path d="M 555 579 L 616 579 L 616 637 L 555 637 Z M 555 579 " clip-rule="nonzero"/></clipPath><clipPath id="d7e537c69e9"><path d="M 665.574219 1025.089844 L 198.9375 631.441406 L 458.144531 324.171875 L 924.78125 717.820312 Z M 665.574219 1025.089844 " clip-rule="nonzero"/></clipPath><clipPath id="dded4ed5fef"><path d="M 665.574219 1025.089844 L 198.9375 631.441406 L 458.144531 324.171875 L 924.78125 717.820312 Z M 665.574219 1025.089844 " clip-rule="nonzero"/></clipPath><clipPath id="d3c25a5e6cb"><path d="M 416 624 L 478 624 L 478 683 L 416 683 Z M 416 624 " clip-rule="nonzero"/></clipPath><clipPath id="d81f623960a"><path d="M 665.574219 1025.089844 L 198.9375 631.441406 L 458.144531 324.171875 L 924.78125 717.820312 Z M 665.574219 1025.089844 " clip-rule="nonzero"/></clipPath><clipPath id="d2d3f3dc49a"><path d="M 665.574219 1025.089844 L 198.9375 631.441406 L 458.144531 324.171875 L 924.78125 717.820312 Z M 665.574219 1025.089844 " clip-rule="nonzero"/></clipPath><clipPath id="db6b3c99b99"><path d="M 609 628 L 696 628 L 696 712 L 609 712 Z M 609 628 " clip-rule="nonzero"/></clipPath><clipPath id="d6fc2a5b306"><path d="M 665.574219 1025.089844 L 198.9375 631.441406 L 458.144531 324.171875 L 924.78125 717.820312 Z M 665.574219 1025.089844 " clip-rule="nonzero"/></clipPath><clipPath id="de0504a3a0d"><path d="M 665.574219 1025.089844 L 198.9375 631.441406 L 458.144531 324.171875 L 924.78125 717.820312 Z M 665.574219 1025.089844 " clip-rule="nonzero"/></clipPath><clipPath id="d91c439d86e"><path d="M 591 729 L 647 729 L 647 782 L 591 782 Z M 591 729 " clip-rule="nonzero"/></clipPath><clipPath id="d997eac1cad"><path d="M 665.574219 1025.089844 L 198.9375 631.441406 L 458.144531 324.171875 L 924.78125 717.820312 Z M 665.574219 1025.089844 " clip-rule="nonzero"/></clipPath><clipPath id="d1d71da2a77"><path d="M 665.574219 1025.089844 L 198.9375 631.441406 L 458.144531 324.171875 L 924.78125 717.820312 Z M 665.574219 1025.089844 " clip-rule="nonzero"/></clipPath><clipPath id="dad08232d97"><path d="M 708 705 L 810 705 L 810 808 L 708 808 Z M 708 705 " clip-rule="nonzero"/></clipPath><clipPath id="d215a7b88bd"><path d="M 665.574219 1025.089844 L 198.9375 631.441406 L 458.144531 324.171875 L 924.78125 717.820312 Z M 665.574219 1025.089844 " clip-rule="nonzero"/></clipPath><clipPath id="de03eeb1002"><path d="M 665.574219 1025.089844 L 198.9375 631.441406 L 458.144531 324.171875 L 924.78125 717.820312 Z M 665.574219 1025.089844 " clip-rule="nonzero"/></clipPath><clipPath id="ddccb8e47c9"><path d="M 226 535 L 391 535 L 391 693 L 226 693 Z M 226 535 " clip-rule="nonzero"/></clipPath><clipPath id="da6805e4d32"><path d="M 665.574219 1025.089844 L 198.9375 631.441406 L 458.144531 324.171875 L 924.78125 717.820312 Z M 665.574219 1025.089844 " clip-rule="nonzero"/></clipPath><clipPath id="df3653612ee"><path d="M 665.574219 1025.089844 L 198.9375 631.441406 L 458.144531 324.171875 L 924.78125 717.820312 Z M 665.574219 1025.089844 " clip-rule="nonzero"/></clipPath><clipPath id="d29c397f5d3"><path d="M 135 210 L 326.394531 210 L 326.394531 376 L 135 376 Z M 135 210 " clip-rule="nonzero"/></clipPath><clipPath id="d6b2fcb78ce"><path d="M 0 199.496094 L 92 199.496094 L 92 345 L 0 345 Z M 0 199.496094 " clip-rule="nonzero"/></clipPath><clipPath id="d8042a0f246"><path d="M 220 738 L 303 738 L 303 809.996094 L 220 809.996094 Z M 220 738 " clip-rule="nonzero"/></clipPath><clipPath id="dfb6dbdeda6"><path d="M 0 1 L 29 1 L 29 83 L 0 83 Z M 0 1 " clip-rule="nonzero"/></clipPath><clipPath id="d4e43bdca1d"><path d="M 10.890625 467.660156 L -455.746094 74.011719 L -196.539062 -233.261719 L 270.101562 160.386719 Z M 10.890625 467.660156 " clip-rule="nonzero"/></clipPath><clipPath id="db61e92cdaa"><path d="M 10.890625 467.660156 L -455.746094 74.011719 L -196.539062 -233.261719 L 270.101562 160.386719 Z M 10.890625 467.660156 " clip-rule="nonzero"/></clipPath><clipPath id="d0631c6214c"><path d="M 9 230 L 32 230 L 32 253 L 9 253 Z M 9 230 " clip-rule="nonzero"/></clipPath><clipPath id="daa2f474397"><path d="M 10.890625 467.660156 L -455.746094 74.011719 L -196.539062 -233.261719 L 270.101562 160.386719 Z M 10.890625 467.660156 " clip-rule="nonzero"/></clipPath><clipPath id="dfca61c2b14"><path d="M 10.890625 467.660156 L -455.746094 74.011719 L -196.539062 -233.261719 L 270.101562 160.386719 Z M 10.890625 467.660156 " clip-rule="nonzero"/></clipPath><clipPath id="dc0ee9b6f1d"><path d="M 20 44 L 158 44 L 158 176 L 20 176 Z M 20 44 " clip-rule="nonzero"/></clipPath><clipPath id="d489725576b"><path d="M 10.890625 467.660156 L -455.746094 74.011719 L -196.539062 -233.261719 L 270.101562 160.386719 Z M 10.890625 467.660156 " clip-rule="nonzero"/></clipPath><clipPath id="d54adb86623"><path d="M 10.890625 467.660156 L -455.746094 74.011719 L -196.539062 -233.261719 L 270.101562 160.386719 Z M 10.890625 467.660156 " clip-rule="nonzero"/></clipPath><clipPath id="ded30c12bf4"><path d="M 0 71 L 42 71 L 42 154 L 0 154 Z M 0 71 " clip-rule="nonzero"/></clipPath><clipPath id="d0bff6187fa"><path d="M 10.890625 467.660156 L -455.746094 74.011719 L -196.539062 -233.261719 L 270.101562 160.386719 Z M 10.890625 467.660156 " clip-rule="nonzero"/></clipPath><clipPath id="d2a53fe2b15"><path d="M 10.890625 467.660156 L -455.746094 74.011719 L -196.539062 -233.261719 L 270.101562 160.386719 Z M 10.890625 467.660156 " clip-rule="nonzero"/></clipPath><clipPath id="d5434c9e217"><path d="M 54 148 L 162 148 L 162 251 L 54 251 Z M 54 148 " clip-rule="nonzero"/></clipPath><clipPath id="daf51e8254a"><path d="M 10.890625 467.660156 L -455.746094 74.011719 L -196.539062 -233.261719 L 270.101562 160.386719 Z M 10.890625 467.660156 " clip-rule="nonzero"/></clipPath><clipPath id="d527de13d7e"><path d="M 10.890625 467.660156 L -455.746094 74.011719 L -196.539062 -233.261719 L 270.101562 160.386719 Z M 10.890625 467.660156 " clip-rule="nonzero"/></clipPath><clipPath id="d7c41870e3d"><path d="M 160 148 L 242 148 L 242 226 L 160 226 Z M 160 148 " clip-rule="nonzero"/></clipPath><clipPath id="d99906cdbe3"><path d="M 10.890625 467.660156 L -455.746094 74.011719 L -196.539062 -233.261719 L 270.101562 160.386719 Z M 10.890625 467.660156 " clip-rule="nonzero"/></clipPath><clipPath id="d6869504b8c"><path d="M 10.890625 467.660156 L -455.746094 74.011719 L -196.539062 -233.261719 L 270.101562 160.386719 Z M 10.890625 467.660156 " clip-rule="nonzero"/></clipPath><clipPath id="d3e25a19982"><path d="M 395 630 L 418 630 L 418 652 L 395 652 Z M 395 630 " clip-rule="nonzero"/></clipPath><clipPath id="de05c6f471a"><path d="M 419.679688 415.074219 L 621.800781 591.820312 L 483.066406 750.46875 L 280.949219 573.71875 Z M 419.679688 415.074219 " clip-rule="nonzero"/></clipPath><clipPath id="df50e92f2f1"><path d="M 419.679688 415.074219 L 879.246094 816.953125 L 614.621094 1119.566406 L 155.050781 717.6875 Z M 419.679688 415.074219 " clip-rule="nonzero"/></clipPath><clipPath id="d3e5013fa9c"><path d="M 433 659 L 489 659 L 489 712 L 433 712 Z M 433 659 " clip-rule="nonzero"/></clipPath><clipPath id="d822d429f0e"><path d="M 419.679688 415.074219 L 621.800781 591.820312 L 483.066406 750.46875 L 280.949219 573.71875 Z M 419.679688 415.074219 " clip-rule="nonzero"/></clipPath><clipPath id="dce2fe19dc4"><path d="M 419.679688 415.074219 L 879.246094 816.953125 L 614.621094 1119.566406 L 155.050781 717.6875 Z M 419.679688 415.074219 " clip-rule="nonzero"/></clipPath><clipPath id="d325636f92d"><path d="M 313 339 L 398 339 L 398 430 L 313 430 Z M 313 339 " clip-rule="nonzero"/></clipPath><clipPath id="dcf1d0ec966"><path d="M 290.375 526.695312 L 170.257812 372.128906 L 319.492188 256.15625 L 439.609375 410.71875 Z M 290.375 526.695312 " clip-rule="nonzero"/></clipPath><clipPath id="deaae27eb27"><path d="M 444.191406 724.621094 L 69.574219 242.570312 L 386.992188 -4.105469 L 761.609375 477.945312 Z M 444.191406 724.621094 " clip-rule="nonzero"/></clipPath><clipPath id="d2acf5556b7"><path d="M 279 285 L 337 285 L 337 347 L 279 347 Z M 279 285 " clip-rule="nonzero"/></clipPath><clipPath id="d3a67fa3c64"><path d="M 290.375 526.695312 L 170.257812 372.128906 L 319.492188 256.15625 L 439.609375 410.71875 Z M 290.375 526.695312 " clip-rule="nonzero"/></clipPath><clipPath id="dfe1d32a899"><path d="M 444.191406 724.621094 L 69.574219 242.570312 L 386.992188 -4.105469 L 761.609375 477.945312 Z M 444.191406 724.621094 " clip-rule="nonzero"/></clipPath><clipPath id="d62b8ae7651"><path d="M 270 414 L 293 414 L 293 437 L 270 437 Z M 270 414 " clip-rule="nonzero"/></clipPath><clipPath id="df38cca7efb"><path d="M 207.195312 299.695312 L 418.910156 484.835938 L 367.566406 543.550781 L 155.847656 358.410156 Z M 207.195312 299.695312 " clip-rule="nonzero"/></clipPath><clipPath id="d85e1a7082f"><path d="M 294.546875 199.800781 L 754.113281 601.683594 L 489.484375 904.296875 L 29.917969 502.417969 Z M 294.546875 199.800781 " clip-rule="nonzero"/></clipPath><clipPath id="d8eb46ea9d4"><path d="M 308 443 L 364 443 L 364 497 L 308 497 Z M 308 443 " clip-rule="nonzero"/></clipPath><clipPath id="d6991c9d2f0"><path d="M 207.195312 299.695312 L 418.910156 484.835938 L 367.566406 543.550781 L 155.847656 358.410156 Z M 207.195312 299.695312 " clip-rule="nonzero"/></clipPath><clipPath id="d887a8913b9"><path d="M 294.546875 199.800781 L 754.113281 601.683594 L 489.484375 904.296875 L 29.917969 502.417969 Z M 294.546875 199.800781 " clip-rule="nonzero"/></clipPath></defs><g clip-path="url(#22091c1cc2)"><g clip-path="url(#e2c776f1cc)"><g clip-path="url(#3900073d6b)"><path fill="#00ff00" d="M 22.238281 701.9375 C 24.757812 722.554688 26.863281 743.484375 29.378906 764.105469 L -21.023438 801.6875 C -40.066406 793.386719 -59.523438 785.398438 -78.875 776.683594 C -81.394531 756.0625 -83.5 735.136719 -86.328125 714.101562 L -35.925781 676.519531 C -16.878906 684.820312 2.886719 693.222656 21.929688 701.523438 Z M 24.726562 732.863281 L 21.101562 702.136719 L -35.722656 677.65625 L -85.296875 714.621094 L -78.050781 776.070312 L -21.226562 800.554688 L 28.351562 763.585938 Z M 24.726562 732.863281 " fill-opacity="1" fill-rule="nonzero"/></g></g></g><g clip-path="url(#5128c50c67)"><g clip-path="url(#5c4f27c188)"><g clip-path="url(#b86d0e5cf1)"><path fill="#00ff00" d="M 126.996094 650.179688 C 130.011719 677.503906 133.75 704.929688 136.765625 732.25 L 69.835938 782.152344 C 44.203125 771.054688 18.878906 760.367188 -6.753906 749.265625 C -10.078125 721.53125 -13.09375 694.210938 -16.417969 666.472656 L 50.511719 616.570312 C 76.144531 627.671875 101.46875 638.359375 127.101562 649.460938 Z M 129.148438 691 L 124.625 651.308594 L 50.8125 619.5625 L -13.636719 667.617188 L -4.277344 747.417969 L 69.535156 779.164062 L 133.984375 731.109375 L 129.457031 691.414062 Z M 129.148438 691 " fill-opacity="1" fill-rule="nonzero"/></g></g></g><g clip-path="url(#d5afb1a456)"><g clip-path="url(#0a9f2bd0c6)"><g clip-path="url(#8b8025603e)"><path fill="#00ff00" d="M 344.515625 603.226562 C 337.375 583.71875 330.566406 563.816406 323.425781 544.308594 L 363.964844 496.253906 C 384.398438 500.003906 405.164062 503.363281 425.988281 507.445312 C 433.128906 526.957031 439.9375 546.855469 447.472656 566.699219 L 406.933594 614.753906 C 386.5 611 365.34375 607.3125 344.910156 603.558594 Z M 335.0625 573.675781 L 345.574219 602.769531 L 406.476562 613.695312 L 446.351562 566.425781 L 425.324219 508.234375 L 364.421875 497.3125 L 324.546875 544.578125 Z M 335.0625 573.675781 " fill-opacity="1" fill-rule="nonzero"/></g></g></g><g clip-path="url(#838753bde3)"><g clip-path="url(#89ac69bf3d)"><g clip-path="url(#b5bef2ee5b)"><path fill="#00ff00" d="M 496.574219 598.003906 C 488.917969 576.710938 480.863281 555.085938 473.207031 533.792969 L 517.402344 481.40625 C 539.679688 485.367188 562.683594 489.265625 584.964844 493.226562 C 592.621094 514.519531 600.671875 536.144531 608 557.832031 L 563.804688 610.222656 C 541.527344 606.261719 518.851562 601.964844 496.242188 598.398438 Z M 486.144531 565.609375 L 497.632812 597.550781 L 564.46875 609.433594 L 608 557.832031 L 585.023438 493.953125 L 518.1875 482.070312 L 474.660156 533.671875 Z M 486.144531 565.609375 " fill-opacity="1" fill-rule="nonzero"/></g></g></g><g clip-path="url(#92937a9a8d)"><g clip-path="url(#b4d7a94134)"><g clip-path="url(#7d10c22bab)"><path fill="#00ff00" d="M 432.960938 576.707031 C 428.617188 564.273438 424.332031 552.570312 419.984375 540.140625 L 445.238281 510.203125 C 458.226562 512.390625 470.878906 514.976562 483.863281 517.164062 C 488.210938 529.597656 492.890625 541.632812 497.234375 554.0625 L 471.980469 584 C 458.996094 581.8125 446.34375 579.226562 433.355469 577.039062 Z M 427.398438 558.527344 L 434.019531 576.25 L 471.527344 582.941406 L 496.113281 553.792969 L 483.199219 517.953125 L 445.695312 511.261719 L 421.105469 540.410156 L 427.730469 558.132812 Z M 427.398438 558.527344 " fill-opacity="1" fill-rule="nonzero"/></g></g></g><g clip-path="url(#0bdfa50d1e)"><g clip-path="url(#2c92e1db80)"><g clip-path="url(#ea4f263a09)"><path fill="#00ff00" d="M 406.324219 529.960938 C 395.746094 500.140625 384.839844 470.710938 374.261719 440.886719 L 435.734375 368.015625 C 466.914062 373.417969 498.484375 379.148438 529.664062 384.550781 C 540.238281 414.371094 551.210938 444.527344 561.785156 474.347656 L 500.3125 547.21875 C 469.132812 541.820312 437.5625 536.085938 406.382812 530.6875 Z M 393 485.011719 L 408.378906 528.324219 L 499.007812 544.769531 L 558.484375 474.261719 L 527.003906 387.699219 L 436.375 371.253906 L 376.898438 441.761719 L 392.273438 485.074219 Z M 393 485.011719 " fill-opacity="1" fill-rule="nonzero"/></g></g></g><g clip-path="url(#25075e84bd)"><g clip-path="url(#7b5d232c21)"><g clip-path="url(#c10d2d57b1)"><path fill="#00ff00" d="M 612.5 632.421875 C 607.695312 618.929688 602.894531 605.441406 598.09375 591.953125 L 626.007812 558.863281 C 640.113281 561.324219 654.21875 563.785156 668.324219 566.246094 C 673.125 579.734375 677.925781 593.222656 682.726562 606.714844 L 654.816406 639.800781 C 640.710938 637.339844 626.605469 634.882812 612.5 632.421875 Z M 606.023438 612.125 L 613.164062 631.632812 L 654.753906 639.074219 L 682 606.777344 L 667.660156 567.03125 L 626.066406 559.589844 L 598.820312 591.890625 L 605.960938 611.398438 Z M 606.023438 612.125 " fill-opacity="1" fill-rule="nonzero"/></g></g></g><g clip-path="url(#a9cac71593)"><g clip-path="url(#befb3d54e3)"><g clip-path="url(#5d2b2bbdeb)"><path fill="#00ff00" d="M 572.699219 568.507812 C 566.863281 551.449219 560.300781 534.449219 554.464844 517.390625 L 590.019531 475.246094 C 608.210938 478.457031 626.40625 481.664062 643.871094 484.9375 C 650.101562 502.328125 656.332031 519.71875 662.5 536.386719 L 626.945312 578.53125 C 608.75 575.324219 590.890625 571.71875 573.09375 568.839844 L 573.03125 568.113281 Z M 565.398438 542.796875 L 574.089844 567.65625 L 626.09375 577.140625 L 660.320312 536.570312 L 642.210938 486.90625 L 590.207031 477.421875 L 555.980469 517.996094 L 564.671875 542.855469 Z M 565.398438 542.796875 " fill-opacity="1" fill-rule="nonzero"/></g></g></g><g clip-path="url(#3aebc793a1)"><g clip-path="url(#2c8d737c77)"><g clip-path="url(#187db71537)"><path fill="#00ff00" d="M 552.339844 673.363281 L 545.59375 654.1875 L 559.214844 638.039062 L 579.648438 641.789062 L 586.789062 661.300781 L 573.164062 677.449219 L 552.734375 673.695312 L 552.671875 672.96875 Z M 550.75 663.257812 L 554.0625 672.121094 L 572.648438 675.664062 L 584.941406 661.089844 L 578.320312 643.367188 L 559.734375 639.824219 L 547.4375 654.398438 Z M 550.75 663.257812 " fill-opacity="1" fill-rule="nonzero"/></g></g></g><g clip-path="url(#e6c2ee3f8a)"><g clip-path="url(#b79eb4f68d)"><g clip-path="url(#6f1ac644f3)"><path fill="#00ff00" d="M 478.730469 745.4375 C 473.867188 731.222656 468.277344 717.066406 463.414062 702.851562 L 492.65625 668.1875 C 507.488281 670.585938 522.378906 673.710938 537.210938 676.109375 C 542.074219 690.328125 547.664062 704.480469 552.527344 718.695312 L 523.285156 753.359375 C 508.453125 750.960938 493.5625 747.835938 478.730469 745.4375 Z M 471.796875 724.082031 L 479.0625 745.042969 L 522.894531 753.027344 L 551.46875 719.152344 L 536.214844 677.292969 L 492.382812 669.308594 L 463.808594 703.183594 L 471.070312 724.144531 Z M 471.796875 724.082031 " fill-opacity="1" fill-rule="nonzero"/></g></g></g><g clip-path="url(#5669cd1930)"><g clip-path="url(#c3f9d7733b)"><g clip-path="url(#ddb0812021)"><path fill="#00ff00" d="M 667.203125 807.34375 C 666.167969 803.773438 664.800781 800.597656 663.765625 797.027344 L 671.078125 788.363281 L 682.214844 790.34375 L 686.046875 800.988281 L 678.734375 809.65625 C 675.042969 809.238281 671.289062 808.09375 667.597656 807.675781 Z M 666.375 801.925781 L 667.867188 806.554688 L 677.886719 808.265625 L 684.53125 800.386719 L 681.15625 790.800781 L 671.140625 789.089844 L 664.492188 796.96875 L 665.984375 801.59375 Z M 666.375 801.925781 " fill-opacity="1" fill-rule="nonzero"/></g></g></g><g clip-path="url(#5882d1aed6)"><g clip-path="url(#0c0dd4bec5)"><g clip-path="url(#2cd6a4bedb)"><path fill="#00ff00" d="M 698.9375 720.171875 C 690.886719 698.546875 683.164062 676.527344 675.507812 655.234375 L 720.367188 602.058594 L 789.050781 614.148438 C 796.769531 636.167969 804.820312 657.792969 812.539062 679.8125 L 767.679688 732.988281 C 744.675781 729.089844 722.003906 724.796875 699 720.898438 Z M 688.839844 687.382812 L 700.328125 719.320312 L 767.164062 731.207031 L 810.695312 679.605469 L 787.71875 615.726562 L 720.882812 603.84375 L 677.355469 655.445312 Z M 688.839844 687.382812 " fill-opacity="1" fill-rule="nonzero"/></g></g></g><g clip-path="url(#17ace3506a)"><g clip-path="url(#cdd69a5f6e)"><g clip-path="url(#ca6f752b62)"><path fill="#00ff00" d="M 496.960938 632.714844 C 494.042969 624.1875 490.792969 616.050781 487.875 607.519531 L 505.484375 586.644531 L 532.242188 591.6875 L 541.722656 617.214844 L 524.113281 638.089844 C 515.214844 636.652344 506.3125 635.214844 497.351562 633.046875 L 497.292969 632.320312 Z M 494.398438 619.765625 L 498.683594 631.472656 L 523.203125 635.972656 L 539.484375 616.671875 L 530.914062 593.261719 L 506.394531 588.761719 L 490.113281 608.0625 Z M 494.398438 619.765625 " fill-opacity="1" fill-rule="nonzero"/></g></g></g><g clip-path="url(#8d0de50255)"><g clip-path="url(#7e537c69e9)"><g clip-path="url(#ded4ed5fef)"><path fill="#00ff00" d="M 565.863281 630.160156 C 562.488281 620.574219 559.175781 611.710938 555.804688 602.125 L 575.074219 579.277344 C 585.09375 580.988281 595.113281 582.695312 604.800781 584.800781 C 608.175781 594.386719 611.878906 603.582031 615.253906 613.171875 L 595.980469 636.015625 C 585.960938 634.308594 576.273438 632.203125 566.253906 630.492188 Z M 561.726562 615.882812 L 566.527344 629.371094 L 595.132812 634.625 L 613.738281 612.566406 L 603.742188 585.253906 L 575.136719 580.003906 L 556.53125 602.0625 L 561.332031 615.550781 Z M 561.726562 615.882812 " fill-opacity="1" fill-rule="nonzero"/></g></g></g><g clip-path="url(#3c25a5e6cb)"><g clip-path="url(#81f623960a)"><g clip-path="url(#2d3f3dc49a)"><path fill="#00ff00" d="M 427.148438 676.304688 L 416.699219 647.9375 L 436.304688 624.695312 L 466.753906 630.15625 L 477.269531 659.253906 L 457.664062 682.496094 C 447.644531 680.785156 437.625 679.074219 427.210938 677.03125 Z M 423.738281 661.96875 L 428.542969 675.457031 L 456.753906 680.378906 L 475.027344 658.710938 L 465.425781 631.734375 L 437.214844 626.8125 L 418.9375 648.476562 Z M 423.738281 661.96875 " fill-opacity="1" fill-rule="nonzero"/></g></g></g><g clip-path="url(#b6b3c99b99)"><g clip-path="url(#6fc2a5b306)"><g clip-path="url(#e0504a3a0d)"><path fill="#00ff00" d="M 623.558594 702.429688 L 609.152344 661.960938 L 637.398438 628.480469 L 680.835938 636.132812 L 695.695312 677.660156 L 667.449219 711.140625 L 624.015625 703.488281 L 623.953125 702.761719 Z M 618.867188 681.617188 L 625.613281 700.792969 L 665.359375 708.027344 L 691.609375 676.90625 L 677.785156 638.949219 L 638.039062 631.71875 L 611.789062 662.835938 L 618.535156 682.011719 Z M 618.867188 681.617188 " fill-opacity="1" fill-rule="nonzero"/></g></g></g><g clip-path="url(#91c439d86e)"><g clip-path="url(#997eac1cad)"><g clip-path="url(#1d71da2a77)"><path fill="#00ff00" d="M 600.941406 776.394531 C 598.023438 767.863281 594.714844 759.003906 591.796875 750.472656 L 609.738281 729.203125 L 637.222656 734.183594 L 646.765625 760.4375 L 628.820312 781.707031 C 619.527344 779.9375 610.628906 778.496094 601.335938 776.726562 Z M 597.261719 763.175781 L 601.605469 775.605469 L 627.972656 780.316406 L 645.25 759.835938 L 636.164062 734.640625 L 609.800781 729.929688 L 592.519531 750.410156 L 596.867188 762.84375 Z M 597.261719 763.175781 " fill-opacity="1" fill-rule="nonzero"/></g></g></g><g clip-path="url(#ad08232d97)"><g clip-path="url(#215a7b88bd)"><g clip-path="url(#e03eeb1002)"><path fill="#00ff00" d="M 727.167969 798.597656 C 721.332031 781.539062 714.769531 764.542969 708.933594 747.484375 L 744.15625 705.730469 C 761.953125 708.609375 779.816406 712.210938 797.613281 715.089844 C 803.449219 732.148438 810.011719 749.148438 815.847656 766.207031 L 780.625 807.960938 C 762.765625 804.355469 744.964844 801.476562 727.167969 798.597656 Z M 719.140625 772.949219 L 728.226562 798.140625 L 780.957031 807.566406 L 815.515625 766.601562 L 797.34375 716.210938 L 744.613281 706.789062 L 710.054688 747.753906 Z M 719.140625 772.949219 " fill-opacity="1" fill-rule="nonzero"/></g></g></g><g clip-path="url(#dccb8e47c9)"><g clip-path="url(#a6805e4d32)"><g clip-path="url(#f3653612ee)"><path fill="#00ff00" d="M 254.265625 677.441406 C 245.117188 651.523438 235.246094 625.664062 226.097656 599.742188 L 279.929688 535.929688 C 307.414062 540.914062 334.503906 545.5625 361.988281 550.546875 C 371.53125 576.796875 380.679688 602.71875 390.21875 628.972656 L 336.390625 692.785156 C 308.90625 687.800781 281.8125 683.152344 254.328125 678.167969 Z M 242.890625 638.179688 L 256.320312 675.804688 L 335.417969 689.941406 L 387.253906 628.492188 L 359.996094 552.910156 L 280.902344 538.773438 L 229.0625 600.222656 L 242.496094 637.847656 Z M 242.890625 638.179688 " fill-opacity="1" fill-rule="nonzero"/></g></g></g><path fill="#00ff00" d="M 39.832031 292.578125 C 50.136719 274.542969 60.960938 256.503906 71.265625 238.46875 L 134.136719 238.46875 C 144.445312 256.503906 155.265625 274.542969 165.574219 293.09375 C 155.265625 311.132812 144.445312 329.167969 134.136719 347.71875 L 71.265625 347.71875 C 60.960938 329.683594 50.136719 311.132812 39.832031 293.09375 Z M 56.320312 266.296875 L 40.863281 293.09375 L 71.78125 346.691406 L 133.621094 346.691406 L 164.542969 293.09375 L 133.621094 239.5 L 71.78125 239.5 Z M 56.320312 266.296875 " fill-opacity="1" fill-rule="nonzero"/><path fill="#00ff00" d="M 141.867188 405.4375 C 153.207031 385.855469 164.542969 365.757812 175.878906 346.175781 L 244.421875 346.175781 C 255.757812 365.757812 267.609375 385.855469 278.949219 405.4375 C 267.609375 425.019531 256.273438 445.121094 244.421875 464.703125 L 175.878906 464.703125 C 164.542969 445.121094 153.207031 425.019531 141.351562 405.4375 Z M 159.90625 376.578125 L 142.898438 405.953125 L 176.910156 464.703125 L 244.421875 464.703125 L 278.433594 405.953125 L 244.421875 347.203125 L 176.910156 347.203125 Z M 159.90625 376.578125 " fill-opacity="1" fill-rule="nonzero"/><path fill="#00ff00" d="M 117.132812 343.082031 C 123.832031 331.746094 130.015625 320.921875 136.714844 309.585938 L 175.878906 309.585938 C 182.582031 320.921875 188.765625 332.261719 195.464844 343.597656 C 188.765625 354.933594 182.582031 366.273438 175.878906 377.609375 L 136.714844 377.609375 C 130.015625 366.273438 123.832031 354.933594 117.132812 343.597656 Z M 127.4375 327.105469 L 118.164062 343.597656 L 137.230469 376.578125 L 175.367188 376.578125 L 194.433594 343.597656 L 175.367188 310.617188 L 137.230469 310.617188 L 127.953125 327.105469 Z M 127.4375 327.105469 " fill-opacity="1" fill-rule="nonzero"/><g clip-path="url(#29c397f5d3)"><path fill="#00ff00" d="M 135.683594 292.578125 C 151.660156 265.265625 167.121094 237.953125 183.09375 210.640625 L 278.433594 210.640625 C 294.410156 237.953125 310.382812 265.78125 326.359375 293.09375 C 310.382812 320.40625 294.410156 348.234375 278.433594 375.546875 L 183.09375 375.546875 C 167.121094 348.234375 151.144531 320.40625 135.167969 293.09375 Z M 161.453125 253.414062 L 138.261719 293.09375 L 184.125 372.972656 L 276.371094 372.972656 L 322.238281 293.09375 L 276.371094 213.21875 L 184.125 213.21875 L 160.9375 252.898438 Z M 161.453125 253.414062 " fill-opacity="1" fill-rule="nonzero"/></g><path fill="#00ff00" d="M 190.308594 516.238281 C 197.523438 503.867188 204.738281 491.5 211.953125 479.132812 L 255.242188 479.132812 C 262.457031 491.5 269.671875 503.867188 276.886719 516.238281 C 269.671875 528.605469 262.457031 540.972656 255.242188 553.339844 L 211.953125 553.339844 C 204.738281 540.972656 197.523438 528.605469 190.308594 516.238281 Z M 201.648438 498.199219 L 191.339844 516.238281 L 212.46875 552.824219 L 254.726562 552.824219 L 275.855469 516.238281 L 254.726562 479.648438 L 212.46875 479.648438 L 202.164062 497.683594 Z M 201.648438 498.199219 " fill-opacity="1" fill-rule="nonzero"/><path fill="#00ff00" d="M 213.5 444.605469 C 222.777344 429.144531 231.539062 413.167969 240.8125 397.707031 L 295.953125 397.707031 C 305.230469 413.683594 314.507812 429.660156 323.269531 445.121094 C 313.992188 461.09375 304.714844 477.070312 295.953125 492.53125 L 240.8125 492.53125 C 231.539062 476.554688 222.777344 460.578125 213.5 445.121094 L 214.015625 444.605469 Z M 228.445312 422.445312 L 215.046875 445.121094 L 241.328125 490.984375 L 294.410156 490.984375 L 320.691406 445.121094 L 294.410156 399.253906 L 241.328125 399.253906 L 227.929688 421.929688 Z M 228.445312 422.445312 " fill-opacity="1" fill-rule="nonzero"/><path fill="#00ff00" d="M 120.222656 496.652344 L 130.53125 479.132812 L 151.660156 479.132812 L 161.964844 497.167969 L 151.660156 515.207031 L 130.53125 515.207031 L 120.222656 497.167969 L 120.738281 496.652344 Z M 126.921875 488.921875 L 122.285156 497.167969 L 131.5625 513.660156 L 150.628906 513.660156 L 159.90625 497.167969 L 150.628906 480.679688 L 131.5625 480.679688 Z M 126.921875 488.921875 " fill-opacity="1" fill-rule="nonzero"/><path fill="#00ff00" d="M 17.671875 486.863281 C 25.402344 473.980469 32.617188 460.578125 40.347656 447.695312 L 85.695312 447.695312 C 93.425781 460.578125 100.640625 473.980469 108.371094 486.863281 C 100.640625 499.746094 93.425781 513.144531 85.695312 526.027344 L 40.347656 526.027344 C 32.617188 513.144531 25.402344 499.746094 17.671875 486.863281 Z M 29.523438 467.792969 L 18.1875 486.863281 L 40.347656 525.511719 L 84.664062 525.511719 L 106.824219 486.863281 L 84.664062 448.210938 L 40.347656 448.210938 L 29.007812 467.277344 Z M 29.523438 467.792969 " fill-opacity="1" fill-rule="nonzero"/><path fill="#00ff00" d="M 91.878906 670.839844 C 93.941406 667.746094 95.488281 664.652344 97.550781 661.5625 L 108.886719 661.5625 L 114.554688 671.355469 L 108.886719 681.144531 L 97.550781 681.144531 C 95.488281 678.054688 93.941406 674.445312 91.878906 671.355469 Z M 95.488281 666.714844 L 92.910156 670.839844 L 98.066406 679.597656 L 108.371094 679.597656 L 113.523438 670.839844 L 108.371094 662.078125 L 98.066406 662.078125 L 95.488281 666.199219 Z M 95.488281 666.714844 " fill-opacity="1" fill-rule="nonzero"/><path fill="#00ff00" d="M 178.972656 638.886719 C 190.308594 618.789062 202.164062 598.691406 213.5 579.109375 L 283.070312 579.109375 L 318.113281 639.402344 C 306.261719 659.5 294.925781 679.597656 283.070312 699.699219 L 213.5 699.699219 C 201.648438 679.597656 190.308594 659.5 178.457031 639.402344 Z M 197.523438 610.027344 L 180.519531 639.402344 L 214.53125 698.152344 L 282.039062 698.152344 L 316.054688 639.402344 L 282.039062 580.652344 L 214.53125 580.652344 Z M 197.523438 610.027344 " fill-opacity="1" fill-rule="nonzero"/><path fill="#00ff00" d="M 115.585938 428.113281 C 120.222656 420.382812 124.347656 412.652344 128.984375 404.921875 L 156.296875 404.921875 L 169.695312 428.628906 L 156.296875 452.335938 L 128.984375 452.335938 C 124.347656 444.605469 119.707031 436.875 115.585938 428.628906 L 116.101562 428.113281 Z M 123.832031 417.804688 L 117.648438 428.628906 L 130.015625 450.273438 L 155.265625 450.273438 L 167.636719 428.628906 L 155.265625 406.984375 L 130.015625 406.984375 Z M 123.832031 417.804688 " fill-opacity="1" fill-rule="nonzero"/><path fill="#00ff00" d="M 161.964844 479.132812 C 167.121094 470.371094 171.757812 462.125 176.910156 453.363281 L 206.800781 453.363281 C 211.953125 462.125 217.109375 470.886719 221.746094 479.648438 C 216.59375 488.40625 211.953125 497.167969 206.800781 505.929688 L 176.910156 505.929688 C 171.757812 497.167969 167.121094 488.40625 161.964844 479.648438 Z M 170.210938 466.765625 L 162.996094 479.132812 L 177.425781 504.382812 L 206.285156 504.382812 L 220.714844 479.132812 L 206.285156 453.878906 L 177.425781 453.878906 L 170.210938 466.25 Z M 170.210938 466.765625 " fill-opacity="1" fill-rule="nonzero"/><path fill="#00ff00" d="M 37.253906 402.863281 L 52.199219 376.578125 L 82.605469 376.578125 L 98.066406 403.378906 L 82.605469 430.175781 L 52.199219 430.175781 C 47.046875 421.414062 41.890625 412.652344 36.738281 403.378906 Z M 46.015625 391.007812 L 38.800781 403.378906 L 53.230469 428.113281 L 81.574219 428.113281 L 96.003906 403.378906 L 81.574219 378.640625 L 53.230469 378.640625 Z M 46.015625 391.007812 " fill-opacity="1" fill-rule="nonzero"/><path fill="#00ff00" d="M 143.929688 569.832031 L 165.574219 532.726562 L 209.378906 532.726562 L 231.539062 570.863281 L 209.378906 608.996094 L 165.574219 608.996094 L 143.414062 570.863281 L 143.929688 570.347656 Z M 156.8125 552.824219 L 146.507812 570.347656 L 166.605469 605.390625 L 207.316406 605.390625 L 227.414062 570.347656 L 207.316406 535.304688 L 166.605469 535.304688 L 156.296875 552.824219 Z M 156.8125 552.824219 " fill-opacity="1" fill-rule="nonzero"/><path fill="#00ff00" d="M 72.8125 600.238281 C 77.449219 592.507812 82.089844 584.261719 86.726562 576.53125 L 114.554688 576.53125 L 128.46875 600.753906 L 114.554688 624.972656 L 86.726562 624.972656 C 82.089844 616.726562 77.449219 608.996094 72.8125 600.753906 Z M 80.542969 588.898438 L 73.84375 600.238281 L 87.242188 623.425781 L 114.039062 623.425781 L 127.4375 600.238281 L 114.039062 577.046875 L 87.242188 577.046875 L 80.542969 588.382812 Z M 80.542969 588.898438 " fill-opacity="1" fill-rule="nonzero"/><path fill="#00ff00" d="M 137.230469 711.035156 C 146.507812 695.574219 155.265625 679.597656 164.542969 664.140625 L 219.167969 664.140625 C 228.445312 679.597656 237.207031 695.574219 246.480469 711.035156 C 237.207031 726.496094 228.445312 742.46875 219.167969 757.929688 L 164.542969 757.929688 C 155.78125 741.957031 146.507812 726.496094 137.230469 711.035156 Z M 151.660156 688.359375 L 138.261719 711.550781 L 165.058594 757.929688 L 218.652344 757.929688 L 245.453125 711.550781 L 218.652344 665.167969 L 165.058594 665.167969 Z M 151.660156 688.359375 " fill-opacity="1" fill-rule="nonzero"/><g clip-path="url(#6b2fcb78ce)"><path fill="#00ff00" d="M -75.089844 271.449219 C -61.175781 247.746094 -47.777344 223.523438 -33.863281 199.816406 L 49.621094 199.816406 C 63.535156 224.039062 77.449219 247.746094 91.363281 271.964844 C 77.449219 296.1875 63.535156 319.890625 49.621094 344.113281 L -33.863281 344.113281 C -47.777344 319.890625 -61.691406 296.1875 -75.605469 271.964844 Z M -52.414062 237.4375 L -72.511719 271.964844 L -32.316406 341.535156 L 48.078125 341.535156 L 88.273438 271.964844 L 48.078125 202.394531 L -32.316406 202.394531 L -52.414062 236.921875 Z M -52.414062 237.4375 " fill-opacity="1" fill-rule="nonzero"/></g><g clip-path="url(#8042a0f246)"><path fill="#00ff00" d="M 221.230469 773.90625 L 241.328125 738.863281 L 282.039062 738.863281 L 302.652344 774.421875 L 282.039062 809.980469 L 241.328125 809.980469 L 220.714844 774.421875 Z M 233.597656 758.445312 L 224.324219 774.9375 L 243.390625 807.402344 L 281.011719 807.402344 L 300.078125 774.9375 L 281.011719 742.46875 L 243.390625 742.46875 L 234.113281 758.960938 Z M 233.597656 758.445312 " fill-opacity="1" fill-rule="nonzero"/></g><g clip-path="url(#fb6dbdeda6)"><g clip-path="url(#4e43bdca1d)"><g clip-path="url(#b61e92cdaa)"><path fill="#00ff00" d="M -42.183594 74.988281 C -46.984375 61.5 -51.785156 48.011719 -56.589844 34.519531 L -28.675781 1.433594 C -14.570312 3.894531 -0.464844 6.355469 13.640625 8.8125 C 18.441406 22.304688 23.242188 35.792969 28.046875 49.28125 L 0.132812 82.371094 C -13.972656 79.910156 -28.078125 77.449219 -42.183594 74.988281 Z M -48.660156 54.695312 L -41.519531 74.203125 L 0.0703125 81.644531 L 27.320312 49.34375 L 12.976562 9.601562 L -28.613281 2.160156 L -55.863281 34.460938 L -48.722656 53.96875 Z M -48.660156 54.695312 " fill-opacity="1" fill-rule="nonzero"/></g></g></g><g clip-path="url(#0631c6214c)"><g clip-path="url(#aa2f474397)"><g clip-path="url(#fca61c2b14)"><path fill="#00ff00" d="M 12.519531 249.910156 C 11.484375 246.34375 10.117188 243.167969 9.085938 239.597656 L 16.394531 230.933594 L 27.535156 232.914062 L 31.363281 243.558594 L 24.054688 252.226562 C 20.359375 251.804688 16.605469 250.664062 12.914062 250.242188 Z M 11.695312 244.496094 L 13.183594 249.125 L 23.203125 250.832031 L 29.847656 242.957031 L 26.476562 233.367188 L 16.457031 231.65625 L 9.8125 239.535156 L 11.300781 244.164062 Z M 11.695312 244.496094 " fill-opacity="1" fill-rule="nonzero"/></g></g></g><g clip-path="url(#c0ee9b6f1d)"><g clip-path="url(#489725576b)"><g clip-path="url(#54adb86623)"><path fill="#00ff00" d="M 44.253906 162.742188 C 36.203125 141.117188 28.484375 119.097656 20.824219 97.804688 L 65.683594 44.625 L 134.367188 56.71875 C 142.085938 78.738281 150.136719 100.363281 157.855469 122.382812 L 113 175.558594 C 89.992188 171.660156 67.320312 167.367188 44.316406 163.464844 Z M 34.160156 129.953125 L 45.644531 161.890625 L 112.480469 173.773438 L 156.011719 122.171875 L 133.039062 58.292969 L 66.203125 46.410156 L 22.671875 98.011719 Z M 34.160156 129.953125 " fill-opacity="1" fill-rule="nonzero"/></g></g></g><g clip-path="url(#ed30c12bf4)"><g clip-path="url(#0bff6187fa)"><g clip-path="url(#2a53fe2b15)"><path fill="#00ff00" d="M -31.125 145 L -45.527344 104.53125 L -17.285156 71.046875 L 26.152344 78.699219 L 41.011719 120.226562 L 12.769531 153.710938 L -30.667969 146.058594 L -30.730469 145.332031 Z M -35.816406 124.1875 L -29.070312 143.363281 L 10.675781 150.59375 L 36.925781 119.476562 L 23.101562 81.519531 L -16.644531 74.285156 L -42.894531 105.402344 L -36.148438 124.578125 Z M -35.816406 124.1875 " fill-opacity="1" fill-rule="nonzero"/></g></g></g><g clip-path="url(#5434c9e217)"><g clip-path="url(#af51e8254a)"><g clip-path="url(#527de13d7e)"><path fill="#00ff00" d="M 72.484375 241.167969 C 66.648438 224.109375 60.085938 207.109375 54.25 190.050781 L 89.472656 148.296875 C 107.273438 151.175781 125.132812 154.78125 142.929688 157.660156 C 148.765625 174.71875 155.328125 191.714844 161.164062 208.773438 L 125.941406 250.527344 C 108.082031 246.925781 90.285156 244.046875 72.484375 241.167969 Z M 64.457031 215.515625 L 73.542969 240.710938 L 126.273438 250.132812 L 160.832031 209.167969 L 142.660156 158.78125 L 89.929688 149.355469 L 55.371094 190.324219 Z M 64.457031 215.515625 " fill-opacity="1" fill-rule="nonzero"/></g></g></g><g clip-path="url(#7c41870e3d)"><g clip-path="url(#99906cdbe3)"><g clip-path="url(#6869504b8c)"><path fill="#00ff00" d="M 174.703125 217.5 L 160.878906 179.542969 L 187.128906 148.425781 L 227.601562 155.597656 L 241.488281 194.28125 L 215.238281 225.398438 L 174.765625 218.226562 Z M 170.863281 198.078125 L 177.484375 215.800781 L 214.597656 222.160156 L 238.855469 193.40625 L 226.332031 157.898438 L 189.222656 151.539062 L 164.964844 180.292969 L 171.589844 198.015625 Z M 170.863281 198.078125 " fill-opacity="1" fill-rule="nonzero"/></g></g></g><g clip-path="url(#3e25a19982)"><g clip-path="url(#e05c6f471a)"><g clip-path="url(#f50e92f2f1)"><path fill="#00ff00" d="M 414.183594 632.757812 C 415.152344 636.34375 416.460938 639.542969 417.433594 643.128906 L 409.96875 651.664062 L 398.867188 649.488281 L 395.230469 638.773438 L 402.691406 630.238281 C 406.375 630.722656 410.109375 631.933594 413.792969 632.417969 Z M 414.910156 638.1875 L 413.503906 633.53125 L 403.515625 631.644531 L 396.730469 639.402344 L 399.933594 649.050781 L 409.921875 650.9375 L 416.707031 643.179688 L 415.300781 638.527344 Z M 414.910156 638.1875 " fill-opacity="1" fill-rule="nonzero"/></g></g></g><g clip-path="url(#3e5013fa9c)"><g clip-path="url(#822d429f0e)"><g clip-path="url(#ce2fe19dc4)"><path fill="#00ff00" d="M 479.882812 664.878906 C 482.648438 673.457031 485.800781 682.378906 488.566406 690.957031 L 470.246094 711.90625 L 442.855469 706.4375 L 433.78125 680.019531 L 452.101562 659.070312 C 461.359375 661.007812 470.234375 662.601562 479.492188 664.539062 Z M 483.328125 678.160156 L 479.203125 665.65625 L 452.925781 660.476562 L 435.285156 680.648438 L 443.921875 706 L 470.199219 711.179688 L 487.839844 691.007812 L 483.714844 678.5 Z M 483.328125 678.160156 " fill-opacity="1" fill-rule="nonzero"/></g></g></g><g clip-path="url(#325636f92d)"><g clip-path="url(#cf1d0ec966)"><g clip-path="url(#eaae27eb27)"><path fill="#00ff00" d="M 319.558594 412.238281 C 317.757812 397.320312 315.230469 382.316406 313.429688 367.398438 L 349.238281 339.570312 C 363.246094 345 377.167969 351.152344 391.175781 356.582031 C 392.976562 371.5 395.503906 386.503906 397.304688 401.421875 L 361.496094 429.25 C 347.488281 423.820312 333.566406 417.667969 319.558594 412.238281 Z M 317.21875 389.910156 L 319.964844 411.921875 L 361.179688 428.84375 L 396.175781 401.648438 L 389.953125 357.53125 L 348.742188 340.609375 L 313.746094 367.804688 L 316.496094 389.816406 Z M 317.21875 389.910156 " fill-opacity="1" fill-rule="nonzero"/></g></g></g><g clip-path="url(#2acf5556b7)"><g clip-path="url(#3a67fa3c64)"><g clip-path="url(#fe1d32a899)"><path fill="#00ff00" d="M 283.476562 333.894531 L 279.148438 303.972656 L 303.15625 285.316406 L 331.808594 296.988281 L 336.046875 327.632812 L 312.039062 346.289062 C 302.59375 342.535156 293.148438 338.78125 283.386719 334.617188 Z M 283.121094 319.160156 L 285.015625 333.351562 L 311.585938 344.03125 L 333.964844 326.636719 L 330.179688 298.253906 L 303.609375 287.574219 L 281.230469 304.96875 Z M 283.121094 319.160156 " fill-opacity="1" fill-rule="nonzero"/></g></g></g><g clip-path="url(#62b8ae7651)"><g clip-path="url(#f38cca7efb)"><g clip-path="url(#85e1a7082f)"><path fill="#00ff00" d="M 289.046875 417.484375 C 290.019531 421.074219 291.328125 424.273438 292.300781 427.859375 L 284.835938 436.394531 L 273.734375 434.214844 L 270.09375 423.503906 L 277.558594 414.96875 C 281.242188 415.453125 284.976562 416.664062 288.660156 417.148438 Z M 289.777344 422.914062 L 288.371094 418.261719 L 278.382812 416.375 L 271.597656 424.132812 L 274.800781 433.78125 L 284.789062 435.667969 L 291.570312 427.910156 L 290.164062 423.253906 Z M 289.777344 422.914062 " fill-opacity="1" fill-rule="nonzero"/></g></g></g><g clip-path="url(#8eb46ea9d4)"><g clip-path="url(#6991c9d2f0)"><g clip-path="url(#887a8913b9)"><path fill="#00ff00" d="M 354.746094 449.609375 C 357.511719 458.1875 360.667969 467.109375 363.433594 475.6875 L 345.113281 496.636719 L 317.722656 491.164062 L 308.648438 464.746094 L 326.964844 443.800781 C 336.226562 445.734375 345.097656 447.332031 354.359375 449.269531 Z M 358.191406 462.890625 L 354.070312 450.382812 L 327.792969 445.203125 L 310.152344 465.378906 L 318.789062 490.730469 L 345.066406 495.910156 L 362.707031 475.734375 L 358.582031 463.230469 Z M 358.191406 462.890625 " fill-opacity="1" fill-rule="nonzero"/></g></g></g><path fill="#00ff00" d="M 353.433594 696.585938 C 366.316406 704.3125 379.71875 711.527344 392.601562 719.257812 L 392.601562 764.609375 C 379.71875 772.339844 366.316406 779.554688 353.433594 787.285156 C 340.550781 779.554688 327.152344 772.339844 314.269531 764.609375 L 314.269531 719.257812 C 327.152344 711.527344 340.550781 704.3125 353.433594 696.585938 Z M 372.503906 708.4375 L 353.433594 697.097656 L 314.785156 719.257812 L 314.785156 763.578125 L 353.433594 785.738281 L 392.085938 763.578125 L 392.085938 719.257812 L 373.019531 707.921875 Z M 372.503906 708.4375 " fill-opacity="1" fill-rule="nonzero"/><path fill="#00ff00" d="M 437.433594 716.167969 L 463.71875 731.113281 L 463.71875 761.515625 L 436.917969 776.976562 L 410.121094 761.515625 L 410.121094 731.113281 C 418.882812 725.957031 427.644531 720.804688 436.917969 715.652344 Z M 449.289062 724.929688 L 436.917969 717.714844 L 412.183594 732.144531 L 412.183594 760.484375 L 436.917969 774.914062 L 461.65625 760.484375 L 461.65625 732.144531 Z M 449.289062 724.929688 " fill-opacity="1" fill-rule="nonzero"/></svg>