<svg xmlns="http://www.w3.org/2000/svg" xmlns:xlink="http://www.w3.org/1999/xlink" width="full" viewBox="0 90 225 30" height="full" preserveAspectRatio="xMidYMid meet" version="1.0">
<defs>
<clipPath id="970e011f34">
<path d="M 0 66 L 224.761719 66 L 224.761719 140 L 0 140 Z M 0 66 " clip-rule="nonzero"/>
</clipPath>
<clipPath id="3558ba2034">
<path d="M 99 143 L 125 143 L 125 168.71875 L 99 168.71875 Z M 99 143 " clip-rule="nonzero"/>
</clipPath>
<clipPath id="7e49ed42de">
<path d="M 78 143 L 96 143 L 96 168.71875 L 78 168.71875 Z M 78 143 " clip-rule="nonzero"/>
</clipPath>
<clipPath id="1a43e20be6">
<path d="M 128 143 L 146 143 L 146 168.71875 L 128 168.71875 Z M 128 143 " clip-rule="nonzero"/>
</clipPath>
<clipPath id="7b04222c6a">
<path d="M 15 143 L 36 143 L 36 168.71875 L 15 168.71875 Z M 15 143 " clip-rule="nonzero"/>
</clipPath>
<clipPath id="3e0a5db5a2">
<path d="M 38 143 L 57 143 L 57 168.71875 L 38 168.71875 Z M 38 143 " clip-rule="nonzero"/>
</clipPath><clipPath id="26c70500eb">
<path d="M 197 143 L 211 143 L 211 168.71875 L 197 168.71875 Z M 197 143 " clip-rule="nonzero"/>
</clipPath>
<clipPath id="32975c1a75">
<path d="M 173 143 L 194 143 L 194 168.71875 L 173 168.71875 Z M 173 143 " clip-rule="nonzero"/>
</clipPath>
<clipPath id="80a5abf35d">
<path d="M 146 143 L 165 143 L 165 168.71875 L 146 168.71875 Z M 146 143 " clip-rule="nonzero"/>
</clipPath>
<clipPath id="1dc0e86e10">
<path d="M 59 143 L 78 143 L 78 168.71875 L 59 168.71875 Z M 59 143 " clip-rule="nonzero"/>
</clipPath>
<clipPath id="1f3bd67228">
<path d="M 167 143 L 171 143 L 171 168.71875 L 167 168.71875 Z M 167 143 " clip-rule="nonzero"/>
</clipPath>
<clipPath id="da27b03474">
<path d="M 108 56.28125 L 119 56.28125 L 119 65 L 108 65 Z M 108 56.28125 " clip-rule="nonzero"/>
</clipPath>
<clipPath id="6e7da55095">
<path d="M 119 56.28125 L 128 56.28125 L 128 65 L 119 65 Z M 119 56.28125 " clip-rule="nonzero"/>
</clipPath>
</defs>
<g clip-path="url(#970e011f34)">
<path fill="#00ff00" d="M 194.265625 108.667969 C 194.25 108.878906 194.339844 108.996094 194.433594 109.113281 C 194.800781 109.554688 195.167969 109.992188 195.53125 110.433594 C 197.015625 112.21875 198.347656 114.117188 199.707031 115.996094 C 199.863281 116.210938 199.996094 116.453125 200.097656 116.699219 C 200.210938 116.972656 200.152344 117.246094 199.925781 117.441406 C 199.699219 117.636719 199.457031 117.820312 199.199219 117.972656 C 198.53125 118.378906 197.847656 118.761719 197.171875 119.15625 C 196.964844 119.277344 196.753906 119.402344 196.558594 119.542969 C 196.234375 119.777344 196.128906 120.132812 196.269531 120.496094 C 196.320312 120.636719 196.386719 120.773438 196.457031 120.90625 C 197.558594 122.945312 198.660156 124.984375 199.761719 127.023438 C 199.789062 127.078125 199.828125 127.125 199.851562 127.179688 C 200.144531 127.859375 200.753906 127.890625 201.292969 127.738281 C 201.492188 127.679688 201.6875 127.589844 201.878906 127.503906 C 202.480469 127.226562 203.078125 126.945312 203.679688 126.671875 C 203.980469 126.53125 204.277344 126.382812 204.585938 126.265625 C 204.75 126.203125 204.933594 126.179688 205.113281 126.164062 C 205.410156 126.132812 205.636719 126.277344 205.8125 126.5 C 205.90625 126.621094 205.980469 126.75 206.042969 126.886719 C 206.125 127.046875 206.1875 127.21875 206.257812 127.382812 C 207.742188 130.972656 209.226562 134.558594 210.703125 138.144531 C 210.839844 138.476562 210.945312 138.824219 211.046875 139.167969 C 211.101562 139.351562 210.925781 139.621094 210.742188 139.664062 C 210.625 139.691406 210.503906 139.722656 210.386719 139.726562 C 210.085938 139.738281 209.785156 139.738281 209.484375 139.738281 C 203.757812 139.738281 198.03125 139.738281 192.308594 139.738281 C 191.855469 139.738281 191.40625 139.742188 190.953125 139.730469 C 190.484375 139.71875 190.15625 139.476562 189.964844 139.0625 C 189.839844 138.789062 189.734375 138.503906 189.632812 138.222656 C 188.816406 135.953125 187.871094 133.742188 186.796875 131.585938 C 184.808594 127.582031 182.417969 123.832031 179.644531 120.324219 C 177.738281 117.917969 175.75 115.578125 173.664062 113.320312 C 170.050781 109.414062 166.0625 105.941406 161.675781 102.925781 C 154.019531 97.667969 145.738281 93.726562 136.796875 91.191406 C 134.304688 90.484375 131.78125 89.902344 129.230469 89.449219 C 127.511719 89.144531 125.78125 88.90625 124.046875 88.734375 C 122.578125 88.585938 121.113281 88.417969 119.644531 88.261719 C 117.875 88.078125 116.105469 87.949219 114.328125 87.957031 C 112.671875 87.964844 111.011719 87.988281 109.359375 88.058594 C 108.097656 88.113281 106.835938 88.238281 105.578125 88.34375 C 104.886719 88.402344 104.199219 88.488281 103.511719 88.554688 C 102.042969 88.699219 100.582031 88.921875 99.128906 89.171875 C 96.902344 89.546875 94.695312 90.011719 92.503906 90.5625 C 86.464844 92.082031 80.671875 94.242188 75.113281 97.046875 C 68.183594 100.546875 61.910156 104.980469 56.226562 110.257812 C 50.671875 115.417969 45.984375 121.273438 42.191406 127.839844 C 41.148438 129.640625 40.226562 131.5 39.371094 133.390625 C 38.644531 135.011719 37.929688 136.636719 37.203125 138.257812 C 37.082031 138.53125 36.960938 138.804688 36.8125 139.070312 C 36.597656 139.460938 36.273438 139.703125 35.808594 139.738281 C 35.507812 139.757812 35.214844 139.800781 34.910156 139.761719 C 34.640625 139.726562 34.367188 139.734375 34.097656 139.734375 C 28.523438 139.734375 22.949219 139.734375 17.375 139.734375 C 17.042969 139.734375 16.714844 139.753906 16.382812 139.78125 C 15.957031 139.816406 15.539062 139.761719 15.125 139.691406 C 14.820312 139.640625 14.59375 139.324219 14.660156 139.019531 C 14.714844 138.757812 14.792969 138.496094 14.890625 138.246094 C 15.34375 137.066406 15.800781 135.886719 16.265625 134.714844 C 16.847656 133.230469 17.4375 131.75 18.03125 130.269531 C 18.144531 129.992188 18.265625 129.710938 18.425781 129.460938 C 18.675781 129.070312 19.0625 128.914062 19.519531 129 C 19.722656 129.035156 19.925781 129.109375 20.117188 129.191406 C 20.976562 129.554688 21.828125 129.933594 22.6875 130.300781 C 22.910156 130.394531 23.140625 130.460938 23.367188 130.546875 C 23.691406 130.675781 24.148438 130.550781 24.382812 130.167969 C 24.507812 129.964844 24.617188 129.75 24.722656 129.535156 C 25.210938 128.53125 25.683594 127.523438 26.179688 126.527344 C 26.605469 125.664062 27.058594 124.8125 27.496094 123.957031 C 27.644531 123.660156 27.796875 123.367188 27.917969 123.058594 C 28.066406 122.691406 27.953125 122.335938 27.632812 122.097656 C 27.488281 121.992188 27.328125 121.90625 27.167969 121.824219 C 26.390625 121.421875 25.613281 121.03125 24.839844 120.628906 C 24.628906 120.515625 24.425781 120.382812 24.238281 120.234375 C 23.945312 119.996094 23.851562 119.605469 23.992188 119.25 C 24.070312 119.058594 24.167969 118.871094 24.277344 118.691406 C 25.226562 117.152344 26.25 115.664062 27.363281 114.242188 C 28.457031 112.84375 29.53125 111.425781 30.609375 110.015625 C 30.792969 109.773438 30.96875 109.53125 31.148438 109.289062 C 31.101562 109.195312 31.082031 109.097656 31.023438 109.039062 C 29.652344 107.632812 28.160156 106.371094 26.472656 105.351562 C 24.574219 104.203125 22.515625 103.46875 20.339844 103.03125 C 18.828125 102.730469 17.300781 102.613281 15.757812 102.644531 C 15.394531 102.652344 15.039062 102.691406 14.683594 102.765625 C 14.007812 102.902344 13.320312 103.007812 12.625 103.03125 C 10.980469 103.082031 9.46875 102.664062 8.113281 101.71875 C 7.089844 101.003906 6.214844 100.140625 5.480469 99.136719 C 4.320312 97.542969 3.390625 95.824219 2.757812 93.960938 C 1.894531 91.421875 1.140625 88.855469 0.609375 86.226562 C 0.410156 85.222656 0.273438 84.207031 0.164062 83.191406 C 0.121094 82.800781 0.0742188 82.414062 0.0507812 82.023438 C 0.0234375 81.574219 -0.0195312 81.121094 0.0078125 80.671875 C 0.0742188 79.722656 0.480469 78.9375 1.242188 78.355469 C 1.359375 78.265625 1.5 78.203125 1.640625 78.148438 C 1.753906 78.101562 1.882812 78.125 1.984375 78.191406 C 2.082031 78.257812 2.179688 78.335938 2.253906 78.429688 C 2.367188 78.570312 2.460938 78.726562 2.558594 78.878906 C 3.949219 81.023438 5.347656 83.167969 6.734375 85.320312 C 7.191406 86.027344 7.625 86.75 8.074219 87.464844 C 8.394531 87.972656 8.71875 88.480469 9.046875 88.984375 C 9.710938 90.011719 10.679688 90.558594 11.875 90.726562 C 13.148438 90.90625 14.328125 90.6875 15.398438 89.941406 C 16.214844 89.371094 17.039062 88.816406 17.859375 88.257812 C 18.804688 87.609375 19.695312 86.890625 20.53125 86.109375 C 21.328125 85.367188 22.039062 84.554688 22.636719 83.640625 C 22.984375 83.113281 23.285156 82.558594 23.523438 81.96875 C 23.691406 81.546875 23.816406 81.117188 23.871094 80.664062 C 23.960938 79.925781 23.863281 79.222656 23.519531 78.5625 C 23.355469 78.242188 23.175781 77.921875 22.960938 77.636719 C 21.125 75.171875 19.464844 72.589844 17.816406 69.996094 C 17.574219 69.617188 17.332031 69.234375 17.089844 68.855469 C 17.011719 68.726562 16.925781 68.601562 16.867188 68.460938 C 16.734375 68.136719 16.746094 67.820312 16.949219 67.515625 C 17.367188 66.878906 17.992188 66.636719 18.714844 66.589844 C 19.265625 66.554688 19.796875 66.65625 20.308594 66.847656 C 20.703125 66.992188 21.097656 67.148438 21.46875 67.34375 C 23.066406 68.1875 24.664062 69.03125 26.214844 69.960938 C 27.898438 70.96875 29.511719 72.074219 30.96875 73.390625 C 31.796875 74.136719 32.566406 74.941406 33.269531 75.808594 C 34.109375 76.839844 34.617188 78.015625 34.851562 79.308594 C 35.058594 80.433594 35.226562 81.5625 35.402344 82.691406 C 35.6875 84.476562 35.957031 86.257812 36.3125 88.03125 C 36.511719 89.003906 36.792969 89.957031 37.160156 90.882812 C 37.746094 92.355469 38.574219 93.675781 39.699219 94.792969 C 40.550781 95.644531 41.449219 96.449219 42.328125 97.269531 C 42.371094 97.308594 42.433594 97.328125 42.488281 97.355469 C 42.625 97.386719 42.710938 97.292969 42.792969 97.214844 C 44.527344 95.621094 46.441406 94.253906 48.320312 92.851562 C 49.648438 91.859375 50.972656 90.863281 52.300781 89.875 C 52.519531 89.714844 52.738281 89.550781 52.976562 89.425781 C 53.128906 89.34375 53.316406 89.3125 53.492188 89.292969 C 53.742188 89.261719 53.976562 89.328125 54.160156 89.507812 C 54.351562 89.695312 54.535156 89.894531 54.703125 90.105469 C 54.929688 90.386719 55.128906 90.691406 55.355469 90.972656 C 55.523438 91.183594 55.707031 91.386719 55.902344 91.570312 C 56.246094 91.894531 56.652344 91.9375 57.078125 91.765625 C 57.273438 91.691406 57.460938 91.589844 57.644531 91.484375 C 57.90625 91.332031 58.160156 91.175781 58.414062 91.011719 C 60.058594 89.953125 61.738281 88.949219 63.464844 88.023438 C 63.652344 87.925781 63.839844 87.824219 64.003906 87.695312 C 64.144531 87.589844 64.269531 87.453125 64.375 87.308594 C 64.507812 87.128906 64.535156 86.917969 64.449219 86.710938 C 64.351562 86.492188 64.242188 86.273438 64.117188 86.070312 C 63.863281 85.660156 63.59375 85.261719 63.335938 84.855469 C 63.242188 84.703125 63.148438 84.546875 63.085938 84.378906 C 62.9375 83.988281 63.070312 83.578125 63.414062 83.34375 C 63.585938 83.222656 63.769531 83.121094 63.960938 83.027344 C 66.660156 81.695312 69.394531 80.445312 72.214844 79.375 C 73.226562 78.992188 74.234375 78.601562 75.246094 78.203125 C 75.863281 77.960938 76.5 77.777344 77.144531 77.628906 C 77.433594 77.5625 77.742188 77.539062 78.039062 77.527344 C 78.363281 77.515625 78.625 77.664062 78.789062 77.945312 C 78.925781 78.179688 79.046875 78.421875 79.160156 78.664062 C 79.289062 78.9375 79.394531 79.222656 79.519531 79.492188 C 79.609375 79.683594 79.714844 79.867188 79.828125 80.042969 C 79.929688 80.207031 80.09375 80.28125 80.28125 80.296875 C 80.585938 80.324219 80.882812 80.273438 81.175781 80.195312 C 81.785156 80.027344 82.394531 79.871094 83.007812 79.703125 C 84.542969 79.277344 86.082031 78.855469 87.617188 78.421875 C 88.019531 78.304688 88.433594 78.207031 88.800781 77.988281 C 89.101562 77.804688 89.304688 77.554688 89.359375 77.210938 C 89.386719 77.066406 89.378906 76.910156 89.359375 76.765625 C 89.320312 76.371094 89.179688 76.003906 89.070312 75.628906 C 88.988281 75.34375 88.90625 75.050781 88.855469 74.757812 C 88.800781 74.4375 88.972656 74.148438 89.28125 74.046875 C 89.59375 73.941406 89.914062 73.855469 90.238281 73.792969 C 92.101562 73.445312 93.96875 73.09375 95.835938 72.769531 C 96.992188 72.570312 98.152344 72.398438 99.324219 72.285156 C 101.121094 72.109375 102.925781 72.023438 104.730469 71.910156 C 104.9375 71.894531 105.148438 71.921875 105.355469 71.960938 C 105.605469 72.015625 105.78125 72.191406 105.867188 72.429688 C 105.925781 72.597656 105.957031 72.777344 105.976562 72.957031 C 106.019531 73.34375 106.046875 73.734375 106.078125 74.125 C 106.097656 74.367188 106.171875 74.59375 106.265625 74.816406 C 106.402344 75.136719 106.65625 75.265625 106.976562 75.285156 C 107.125 75.296875 107.277344 75.269531 107.425781 75.253906 C 108.292969 75.160156 109.164062 75.128906 110.042969 75.136719 C 111.15625 75.148438 112.269531 75.136719 113.386719 75.140625 C 113.929688 75.140625 114.46875 75.171875 115.011719 75.167969 C 115.25 75.167969 115.488281 75.132812 115.726562 75.085938 C 116.058594 75.027344 116.238281 74.796875 116.328125 74.484375 C 116.417969 74.160156 116.398438 73.828125 116.375 73.5 C 116.347656 73.078125 116.339844 72.65625 116.40625 72.238281 C 116.449219 71.972656 116.605469 71.804688 116.851562 71.726562 C 116.964844 71.6875 117.085938 71.65625 117.203125 71.652344 C 117.445312 71.636719 117.6875 71.628906 117.925781 71.648438 C 119.066406 71.730469 120.207031 71.820312 121.347656 71.914062 C 122.28125 71.988281 123.210938 72.066406 124.140625 72.15625 C 124.949219 72.238281 125.753906 72.332031 126.5625 72.421875 C 127.191406 72.492188 127.820312 72.582031 128.449219 72.632812 C 129.472656 72.71875 130.46875 72.949219 131.476562 73.132812 C 131.949219 73.21875 132.425781 73.300781 132.894531 73.40625 C 133.285156 73.492188 133.523438 73.78125 133.550781 74.167969 C 133.558594 74.289062 133.558594 74.410156 133.546875 74.527344 C 133.523438 74.738281 133.488281 74.945312 133.460938 75.152344 C 133.421875 75.484375 133.386719 75.8125 133.359375 76.140625 C 133.347656 76.289062 133.355469 76.441406 133.367188 76.589844 C 133.390625 76.921875 133.566406 77.160156 133.863281 77.285156 C 134.113281 77.390625 134.371094 77.476562 134.632812 77.546875 C 135.039062 77.652344 135.453125 77.734375 135.863281 77.828125 C 137.480469 78.199219 139.074219 78.636719 140.667969 79.082031 C 140.929688 79.15625 141.1875 79.25 141.453125 79.300781 C 141.714844 79.351562 141.988281 79.378906 142.257812 79.390625 C 142.515625 79.402344 142.722656 79.269531 142.859375 79.054688 C 142.957031 78.90625 143.042969 78.742188 143.097656 78.570312 C 143.191406 78.285156 143.261719 77.996094 143.332031 77.699219 C 143.425781 77.289062 143.546875 76.886719 143.746094 76.511719 C 143.902344 76.226562 144.195312 76.089844 144.507812 76.164062 C 144.714844 76.214844 144.917969 76.269531 145.117188 76.335938 C 146.746094 76.875 148.375 77.414062 149.996094 77.964844 C 151.878906 78.609375 153.703125 79.390625 155.519531 80.199219 C 156.621094 80.6875 157.722656 81.175781 158.820312 81.664062 C 159.042969 81.761719 159.261719 81.863281 159.46875 81.984375 C 159.726562 82.144531 159.847656 82.496094 159.738281 82.777344 C 159.675781 82.945312 159.589844 83.105469 159.5 83.261719 C 159.246094 83.703125 158.972656 84.140625 158.71875 84.582031 C 158.613281 84.765625 158.527344 84.957031 158.449219 85.152344 C 158.339844 85.433594 158.429688 85.6875 158.621094 85.902344 C 158.722656 86.011719 158.84375 86.105469 158.96875 86.1875 C 159.117188 86.285156 159.28125 86.367188 159.441406 86.453125 C 161.378906 87.550781 163.320312 88.648438 165.257812 89.742188 C 165.46875 89.859375 165.675781 89.984375 165.894531 90.082031 C 166.058594 90.152344 166.238281 90.207031 166.414062 90.226562 C 166.730469 90.269531 167.011719 90.164062 167.21875 89.917969 C 167.355469 89.753906 167.46875 89.578125 167.589844 89.40625 C 167.886719 88.988281 168.175781 88.566406 168.472656 88.152344 C 168.578125 88.003906 168.695312 87.863281 168.816406 87.734375 C 169.078125 87.457031 169.480469 87.394531 169.808594 87.582031 C 169.992188 87.683594 170.167969 87.804688 170.335938 87.929688 C 173.988281 90.589844 177.636719 93.25 181.285156 95.914062 C 181.550781 96.109375 181.820312 96.304688 182.0625 96.53125 C 182.277344 96.726562 182.453125 96.96875 182.667969 97.210938 C 182.972656 96.929688 183.265625 96.671875 183.542969 96.398438 C 184.246094 95.699219 184.953125 95 185.640625 94.285156 C 186.617188 93.269531 187.296875 92.074219 187.804688 90.769531 C 188.21875 89.699219 188.503906 88.59375 188.699219 87.464844 C 189.082031 85.269531 189.445312 83.074219 189.820312 80.878906 C 189.9375 80.195312 190.046875 79.515625 190.175781 78.832031 C 190.316406 78.089844 190.582031 77.386719 190.972656 76.734375 C 191.3125 76.160156 191.71875 75.640625 192.175781 75.160156 C 194.304688 72.914062 196.6875 71 199.425781 69.535156 C 200.832031 68.785156 202.246094 68.042969 203.671875 67.324219 C 204.378906 66.972656 205.117188 66.730469 205.894531 66.609375 C 206.328125 66.542969 206.742188 66.589844 207.136719 66.757812 C 207.71875 67.015625 208.109375 67.542969 208.039062 68.179688 C 208.019531 68.324219 207.976562 68.472656 207.914062 68.609375 C 207.839844 68.769531 207.734375 68.921875 207.636719 69.074219 C 207.226562 69.703125 206.816406 70.335938 206.398438 70.960938 C 204.835938 73.320312 203.269531 75.675781 201.703125 78.035156 C 201.667969 78.082031 201.636719 78.136719 201.601562 78.183594 C 201 78.984375 200.894531 79.882812 201.066406 80.84375 C 201.253906 81.867188 201.65625 82.796875 202.277344 83.636719 C 203.464844 85.246094 204.824219 86.6875 206.464844 87.84375 C 207.375 88.484375 208.316406 89.082031 209.253906 89.679688 C 209.660156 89.9375 210.09375 90.148438 210.519531 90.378906 C 211.414062 90.863281 212.363281 90.890625 213.328125 90.691406 C 213.738281 90.605469 214.136719 90.457031 214.519531 90.269531 C 214.964844 90.050781 215.320312 89.742188 215.59375 89.332031 C 215.660156 89.230469 215.722656 89.128906 215.78125 89.023438 C 216.21875 88.195312 216.761719 87.4375 217.269531 86.65625 C 218.457031 84.839844 219.628906 83.019531 220.8125 81.203125 C 221.320312 80.417969 221.835938 79.640625 222.347656 78.863281 C 222.449219 78.710938 222.546875 78.5625 222.65625 78.414062 C 222.925781 78.058594 223.207031 78.019531 223.585938 78.292969 C 224.398438 78.878906 224.84375 79.667969 224.875 80.660156 C 224.894531 81.289062 224.867188 81.925781 224.808594 82.554688 C 224.59375 84.957031 224.136719 87.320312 223.464844 89.636719 C 223.078125 90.964844 222.6875 92.292969 222.285156 93.617188 C 222.085938 94.28125 221.816406 94.917969 221.507812 95.539062 C 220.925781 96.699219 220.269531 97.8125 219.554688 98.890625 C 219.019531 99.695312 218.390625 100.425781 217.660156 101.0625 C 216.574219 102.011719 215.339844 102.671875 213.90625 102.921875 C 213.125 103.0625 212.347656 103.050781 211.566406 102.957031 C 211.476562 102.945312 211.386719 102.921875 211.300781 102.902344 C 209.753906 102.582031 208.1875 102.570312 206.621094 102.675781 C 205.539062 102.75 204.476562 102.976562 203.425781 103.246094 C 201.339844 103.789062 199.386719 104.632812 197.574219 105.800781 C 196.914062 106.226562 196.289062 106.691406 195.714844 107.230469 C 195.207031 107.703125 194.710938 108.183594 194.265625 108.65625 Z M 33.039062 78.65625 L 33.046875 78.625 L 33.0625 78.636719 C 33.046875 78.722656 33.019531 78.8125 33.023438 78.898438 C 33.035156 79.351562 33.085938 79.796875 33.230469 80.226562 C 33.382812 80.691406 33.398438 81.167969 33.359375 81.648438 C 33.332031 81.945312 33.324219 82.246094 33.292969 82.542969 C 33.269531 82.753906 33.261719 82.964844 33.316406 83.167969 C 33.460938 83.699219 33.308594 84.171875 33.035156 84.621094 C 32.972656 84.722656 32.914062 84.824219 32.863281 84.929688 C 32.832031 84.996094 32.863281 85.058594 32.929688 85.078125 C 32.980469 85.09375 33.046875 85.09375 33.089844 85.074219 C 33.140625 85.050781 33.1875 84.996094 33.207031 84.949219 C 33.28125 84.785156 33.351562 84.617188 33.402344 84.445312 C 33.910156 82.667969 33.828125 80.890625 33.386719 79.117188 C 33.351562 78.976562 33.269531 78.84375 33.191406 78.714844 C 33.167969 78.675781 33.089844 78.675781 33.039062 78.65625 Z M 22.121094 100.441406 C 22.234375 100.34375 22.335938 100.234375 22.460938 100.160156 C 23.074219 99.777344 23.691406 99.40625 24.3125 99.039062 C 24.625 98.855469 24.910156 98.636719 25.167969 98.382812 C 26.820312 96.761719 28.460938 95.128906 30.132812 93.527344 C 30.878906 92.804688 31.441406 91.964844 31.949219 91.074219 C 32.007812 90.972656 32.027344 90.847656 32.058594 90.734375 C 32.0625 90.71875 32.027344 90.683594 32.003906 90.667969 C 31.980469 90.652344 31.941406 90.644531 31.925781 90.660156 C 31.804688 90.746094 31.683594 90.832031 31.582031 90.9375 C 30.523438 92.007812 29.457031 93.070312 28.417969 94.152344 C 26.519531 96.125 24.558594 98.027344 22.46875 99.804688 C 22.355469 99.898438 22.25 100.007812 22.140625 100.109375 C 22.027344 100.214844 22.085938 100.324219 22.128906 100.4375 C 22.132812 100.449219 22.085938 100.382812 22.117188 100.441406 Z M 210.511719 101.878906 C 211.667969 102.011719 212.773438 102.0625 213.871094 101.90625 C 215.027344 101.742188 216.070312 101.289062 216.933594 100.480469 C 217.328125 100.105469 217.671875 99.6875 217.980469 99.242188 C 218.675781 98.222656 219.347656 97.1875 219.941406 96.105469 C 220.796875 94.546875 221.453125 92.898438 222.027344 91.21875 C 223.117188 88.042969 223.761719 84.78125 224.023438 81.4375 C 224.054688 81.015625 224.058594 80.597656 223.996094 80.179688 C 223.976562 80.066406 223.984375 79.945312 223.882812 79.859375 C 223.820312 79.8125 223.640625 79.925781 223.515625 80.082031 C 223.226562 80.4375 223.039062 80.84375 222.929688 81.289062 C 222.878906 81.492188 222.859375 81.703125 222.835938 81.914062 C 222.714844 82.929688 222.625 83.949219 222.464844 84.957031 C 222 87.847656 221.183594 90.640625 220.078125 93.351562 C 219.394531 95.027344 218.589844 96.636719 217.65625 98.1875 C 217.488281 98.472656 217.304688 98.75 217.109375 99.011719 C 216.390625 99.976562 215.480469 100.6875 214.351562 101.121094 C 213.359375 101.503906 212.339844 101.726562 211.277344 101.78125 C 211.039062 101.792969 210.792969 101.75 210.511719 101.882812 Z M 14.410156 101.808594 C 14.171875 101.796875 13.933594 101.78125 13.695312 101.773438 C 12.878906 101.757812 12.078125 101.628906 11.292969 101.402344 C 9.667969 100.9375 8.371094 100.015625 7.464844 98.578125 C 7.242188 98.222656 7.03125 97.859375 6.824219 97.488281 C 5.667969 95.410156 4.722656 93.234375 3.953125 90.984375 C 2.972656 88.128906 2.320312 85.203125 2.097656 82.1875 C 2.074219 81.859375 2.027344 81.53125 1.96875 81.207031 C 1.882812 80.714844 1.652344 80.304688 1.285156 79.964844 C 1.261719 79.945312 1.238281 79.921875 1.210938 79.914062 C 1.15625 79.898438 1.09375 79.875 1.042969 79.890625 C 0.996094 79.902344 0.933594 79.957031 0.925781 80 C 0.898438 80.175781 0.863281 80.359375 0.875 80.535156 C 0.953125 81.613281 1.03125 82.691406 1.132812 83.769531 C 1.175781 84.214844 1.265625 84.660156 1.355469 85.101562 C 1.753906 87.074219 2.289062 89.015625 2.839844 90.949219 C 3.660156 93.8125 4.953125 96.441406 6.644531 98.878906 C 6.902344 99.25 7.175781 99.609375 7.46875 99.953125 C 8.476562 101.128906 9.78125 101.761719 11.300781 101.933594 C 12.347656 102.050781 13.402344 102.003906 14.410156 101.808594 Z M 33.773438 94.363281 C 33.78125 94.457031 33.789062 94.515625 33.789062 94.578125 C 33.78125 94.992188 33.933594 95.335938 34.226562 95.625 C 34.613281 96.007812 34.980469 96.40625 35.367188 96.785156 C 36.617188 98.003906 37.875 99.21875 39.132812 100.429688 C 39.4375 100.722656 39.746094 101.011719 40.078125 101.265625 C 40.941406 101.925781 41.804688 102.582031 42.613281 103.304688 C 42.765625 103.441406 42.925781 103.410156 43.078125 103.238281 C 43.121094 103.191406 43.164062 103.148438 43.195312 103.097656 C 43.414062 102.785156 43.394531 102.453125 43.144531 102.195312 C 43.039062 102.085938 42.921875 101.992188 42.8125 101.890625 C 40.191406 99.492188 37.570312 97.09375 34.949219 94.695312 C 34.730469 94.492188 34.492188 94.304688 34.257812 94.121094 C 34.1875 94.066406 34.09375 94.042969 34.011719 94.011719 C 33.953125 93.984375 33.816406 94.066406 33.808594 94.132812 C 33.796875 94.21875 33.78125 94.308594 33.773438 94.363281 Z M 181.695312 102.402344 C 181.828125 102.664062 182.054688 102.855469 182.300781 103.023438 C 182.34375 103.054688 182.425781 103.058594 182.472656 103.039062 C 182.554688 103.007812 182.628906 102.953125 182.703125 102.898438 C 183.367188 102.382812 184.03125 101.867188 184.691406 101.34375 C 185.023438 101.082031 185.347656 100.816406 185.664062 100.539062 C 186.390625 99.90625 187.039062 99.191406 187.691406 98.484375 C 188.570312 97.535156 189.457031 96.59375 190.457031 95.761719 C 190.59375 95.648438 190.722656 95.519531 190.851562 95.394531 C 191.058594 95.191406 191.144531 94.9375 191.117188 94.65625 C 191.101562 94.480469 191.050781 94.304688 191.011719 94.128906 C 190.996094 94.054688 190.847656 93.992188 190.789062 94.035156 C 190.644531 94.140625 190.492188 94.238281 190.363281 94.355469 C 189.183594 95.429688 188.007812 96.507812 186.832031 97.582031 C 185.234375 99.046875 183.640625 100.511719 182.042969 101.972656 C 181.910156 102.09375 181.753906 102.195312 181.695312 102.402344 Z M 202.644531 100.304688 C 202.753906 100.296875 202.808594 100.292969 202.867188 100.289062 C 202.855469 100.242188 202.863281 100.175781 202.835938 100.148438 C 202.679688 100.003906 202.519531 99.871094 202.359375 99.734375 C 201.175781 98.71875 200.027344 97.664062 198.914062 96.5625 C 197.125 94.789062 195.378906 92.96875 193.652344 91.128906 C 193.449219 90.914062 193.226562 90.710938 193.007812 90.503906 C 192.992188 90.488281 192.941406 90.476562 192.925781 90.488281 C 192.890625 90.523438 192.832031 90.570312 192.839844 90.609375 C 192.855469 90.757812 192.875 90.90625 192.929688 91.046875 C 193.125 91.585938 193.425781 92.074219 193.8125 92.5 C 194.214844 92.945312 194.621094 93.390625 195.042969 93.816406 C 196.246094 95.03125 197.457031 96.238281 198.671875 97.445312 C 199.140625 97.914062 199.625 98.367188 200.179688 98.730469 C 201.007812 99.273438 201.847656 99.796875 202.648438 100.304688 Z M 34.5 83.054688 C 34.484375 82.878906 34.457031 82.582031 34.425781 82.28125 C 34.417969 82.210938 34.359375 82.179688 34.289062 82.207031 C 34.269531 82.214844 34.242188 82.242188 34.242188 82.265625 C 34.214844 82.566406 34.1875 82.863281 34.167969 83.160156 C 34.070312 84.828125 33.6875 86.425781 33.03125 87.957031 C 32.9375 88.179688 32.839844 88.402344 32.757812 88.625 C 32.726562 88.707031 32.714844 88.800781 32.714844 88.890625 C 32.714844 88.9375 32.753906 88.984375 32.785156 89.027344 C 32.789062 89.03125 32.84375 89.011719 32.863281 88.992188 C 33.214844 88.644531 33.394531 88.195312 33.566406 87.75 C 34.144531 86.28125 34.410156 84.746094 34.5 83.054688 Z M 190.617188 82.441406 C 190.402344 82.9375 190.394531 82.957031 190.417969 83.253906 C 190.445312 83.613281 190.46875 83.972656 190.507812 84.328125 C 190.648438 85.554688 190.921875 86.746094 191.40625 87.882812 C 191.535156 88.1875 191.660156 88.492188 191.886719 88.742188 C 191.910156 88.769531 191.980469 88.769531 192.027344 88.769531 C 192.039062 88.769531 192.066406 88.71875 192.058594 88.699219 C 191.984375 88.472656 191.902344 88.246094 191.820312 88.019531 C 191.375 86.75 190.992188 85.460938 190.8125 84.117188 C 190.738281 83.558594 190.679688 82.996094 190.617188 82.445312 Z M 191.121094 81.886719 C 191.148438 82.222656 191.179688 82.550781 191.207031 82.875 C 191.253906 83.539062 191.417969 84.171875 191.621094 84.800781 C 191.65625 84.910156 191.738281 85.007812 191.804688 85.101562 C 191.816406 85.117188 191.867188 85.125 191.886719 85.113281 C 191.929688 85.085938 191.996094 85.042969 191.996094 85.007812 C 191.988281 84.921875 191.96875 84.828125 191.921875 84.75 C 191.660156 84.296875 191.585938 83.800781 191.59375 83.28125 C 191.597656 83.074219 191.59375 82.863281 191.59375 82.65625 C 191.59375 82.296875 191.59375 81.9375 191.480469 81.589844 C 191.40625 81.355469 191.425781 81.121094 191.480469 80.882812 C 191.632812 80.214844 191.769531 79.539062 191.902344 78.867188 C 191.914062 78.828125 191.859375 78.777344 191.828125 78.738281 C 191.828125 78.734375 191.773438 78.757812 191.753906 78.777344 C 191.5625 78.945312 191.507812 79.179688 191.441406 79.40625 C 191.207031 80.21875 191.214844 81.0625 191.121094 81.886719 Z M 31.945312 88.292969 C 31.957031 88.359375 31.964844 88.449219 31.992188 88.53125 C 32.007812 88.578125 32.058594 88.632812 32.101562 88.640625 C 32.148438 88.652344 32.238281 88.628906 32.253906 88.59375 C 32.378906 88.328125 32.488281 88.054688 32.601562 87.785156 C 32.632812 87.71875 32.609375 87.667969 32.539062 87.640625 C 32.511719 87.632812 32.480469 87.628906 32.457031 87.640625 C 32.101562 87.769531 31.945312 87.960938 31.945312 88.292969 Z M 192.910156 88.210938 C 192.890625 87.835938 192.710938 87.628906 192.414062 87.507812 C 192.390625 87.5 192.355469 87.5 192.328125 87.511719 C 192.261719 87.535156 192.238281 87.582031 192.261719 87.648438 C 192.367188 87.917969 192.472656 88.1875 192.582031 88.457031 C 192.59375 88.484375 192.625 88.511719 192.652344 88.511719 C 192.703125 88.515625 192.792969 88.519531 192.804688 88.496094 C 192.855469 88.394531 192.886719 88.28125 192.910156 88.210938 Z M 191.773438 94.417969 C 191.765625 94.320312 191.765625 94.261719 191.757812 94.203125 C 191.75 94.121094 191.710938 94.082031 191.660156 94.105469 C 191.613281 94.128906 191.554688 94.167969 191.539062 94.214844 C 191.488281 94.351562 191.4375 94.496094 191.515625 94.640625 C 191.53125 94.664062 191.5625 94.695312 191.578125 94.695312 C 191.628906 94.683594 191.707031 94.671875 191.722656 94.636719 C 191.757812 94.558594 191.765625 94.464844 191.773438 94.417969 Z M 33.417969 94.464844 C 33.402344 94.355469 33.40625 94.269531 33.378906 94.1875 C 33.363281 94.148438 33.304688 94.125 33.261719 94.101562 C 33.257812 94.101562 33.214844 94.144531 33.214844 94.167969 C 33.222656 94.335938 33.234375 94.507812 33.253906 94.679688 C 33.257812 94.695312 33.296875 94.71875 33.324219 94.722656 C 33.339844 94.726562 33.375 94.707031 33.378906 94.691406 C 33.398438 94.609375 33.410156 94.527344 33.417969 94.46875 Z M 208.691406 101.6875 C 208.613281 101.660156 208.566406 101.636719 208.527344 101.636719 C 208.449219 101.636719 208.371094 101.648438 208.25 101.660156 C 208.332031 101.691406 208.378906 101.722656 208.417969 101.722656 C 208.496094 101.722656 208.574219 101.707031 208.691406 101.6875 Z M 16.273438 101.714844 C 16.410156 101.71875 16.515625 101.726562 16.621094 101.726562 C 16.644531 101.726562 16.671875 101.707031 16.695312 101.695312 C 16.664062 101.671875 16.625 101.628906 16.59375 101.628906 C 16.496094 101.628906 16.382812 101.59375 16.273438 101.714844 Z M 16.273438 101.714844 " fill-opacity="1" fill-rule="nonzero"/></g></svg>